<svg xmlns="http://www.w3.org/2000/svg" viewBox="0 0 81.6 66.23"><defs><style>.cls-1{fill:#b7ff77;fill-rule:evenodd;}</style></defs><g id="Layer_2" data-name="Layer 2"><g id="Layer_1-2" data-name="Layer 1"><path class="cls-1" d="M58.49,35.15c.89,0,1.77-.08,2.65-.16,1.1-.1,2.43.13,2.14-1a23.15,23.15,0,0,0-4.57.12c-.06.36-.14.71-.22,1m-6.66-.25a10.22,10.22,0,0,0,2.27.24c.1-.34.2-.68.28-1C52.06,34,51.93,33.81,51.83,34.9ZM40.36,17.15c0-.26,0-.51,0-.72-1.17,0-1,.51-1,1.53a12.1,12.1,0,0,1,1-.78Zm-1,9.23c1-.1.89-.81.79-2.57A11.73,11.73,0,0,0,39.36,26.38ZM53,29.51c0-.05,0-.16,0-.14l-.09-3c-.09-1-.15-2.64-.22-4.23l0-.05a7.34,7.34,0,0,0-.71-.83c0,2.27.18,4.73.22,5.69S51.93,29.75,53,29.51ZM33.64,45.38c.52-.13.47-.29.74-.86a11,11,0,0,1,.56-1.08l2.4-3.68c-.17-.26-.34-.53-.49-.81-1.06,1.4-2.34,3.35-2.73,4S32.85,44.62,33.64,45.38Zm5.42-14.49c1,0,1.68.12,1.56-.95a7.57,7.57,0,0,0-1.57-.08V30C39.05,30.3,39.05,30.59,39.06,30.89ZM32.94,31c.51,0,1.17,0,1.88,0,0-.3,0-.61,0-.92l-1,0c-.52,0-.93-.05-1.22,0C32.72,30.35,32.84,30.67,32.94,31ZM8.5,26.9a1.33,1.33,0,0,0,1.26-.5l1-.85,1.68-1.74c.6-.77,2.79-3.13,2.63-4-.75-.16-.73-.05-1,.43A28.69,28.69,0,0,1,9.33,25.8C8.87,26.26,8.71,26.16,8.5,26.9Zm50.25-.8a24.51,24.51,0,0,0,3.79-4.21c.42-.57,1.27-1.39,1.13-2.13-1-.2-1.25.85-1.74,1.53s-1,1.25-1.48,1.93A21.43,21.43,0,0,1,58.77,25l-.2.21Q58.68,25.64,58.75,26.1Zm-23.65.12c-.88-1.07-2.82-2.37-3.92-3.58s-.79-1.45-1.61-1.51c-.41,1.27,1,2.33,2.39,3.49l2.5,2.21a1.78,1.78,0,0,0,.49.41Q35,26.73,35.1,26.22Zm9.51-4.35c-.22.93,1.61,2.3,3,4.14l2.39,3c.2.26.66,1,1.16.47s-.16-.72-.46-1a10.89,10.89,0,0,1-.84-1c-.56-.63-1.17-1.49-1.71-2S45.24,22,44.61,21.87Zm12-1.58c0-.69,0-1.37.1-2.07s.29-2-.12-2.66c-.35.43-.53,2.48-.62,3.83C56.19,19.68,56.41,20,56.61,20.29ZM59,22.77c.7.05.65.2.78-.49l.08-4.06c0-1.19.37-4.24,0-5-.7.24-.44-.14-.62,2A68.05,68.05,0,0,0,59,22.77Zm4.12.34c-.92.12-3,3.14-4.16,4.54,0,.44.07.88.09,1.33l.06-.08,2.81-3.72A4.49,4.49,0,0,0,63.12,23.11ZM8.84,30.16c.69.13.54.17,1.62-1.28.8-1.08,3.89-4.76,4-5.78-.81.12-1.23,1-1.65,1.47L9.88,28.14C9.32,28.76,8.51,29.25,8.84,30.16Zm19.08-10c-.47-.3-2.83-.05-4.76.13l-.88,1c.72-.08,1.4-.19,1.73-.22l3.23-.31C28,20.61,27.85,20.7,27.92,20.14Zm.44,22.53.22,0c.89.08,4,.44,4.49-.22-.21-.67,0-.55-1.87-.54-.46,0-1,0-1.68-.08A12.61,12.61,0,0,1,28.36,42.67Zm17.76-4.43c.5.64,3.34.6,4.28.65l1.42.07a8.14,8.14,0,0,0,.86-1L48,37.86C46.8,37.81,47,37.64,46.12,38.24ZM10.3,22.68c1,.49.83-.49.87-1.53l.09-8c-.9.39-.74,3.56-.77,4.57A36.14,36.14,0,0,0,10.3,22.68ZM24.11,15.2a5.74,5.74,0,0,0,1.05-2.33c-1-.2-1,.57-1.46,1.26L23,15.2Zm8.57,6.14c-.55.55,1.5,2.45,2.66,3.68.09-.4.2-.79.32-1.17l-.4-.42-1.74-2C32.72,20.73,32.69,21.34,32.68,21.34Zm36.63-1.69c1,.16.83-.38,1.4-1.3l2.2-3.5c.39-.62,1-1.17.91-2-1-.19-.58,0-1.46,1.26l-2.2,3.5C69.71,18.29,69.11,18.66,69.31,19.65ZM41,22.36c0,.81.24,1.41.76,1.15s.1-1.32.1-1.87c0-.1,0-.21,0-.32a8,8,0,0,0-.65.75Zm.22-7A4.3,4.3,0,0,0,41,16.72l.8-.41A1.3,1.3,0,0,0,41.17,15.35ZM42,38.84a7.48,7.48,0,0,0,.1-2.65c-1,0-.74.7-.82,1.72v.14A7.94,7.94,0,0,0,42,38.84Zm-.87,5.7a2.22,2.22,0,0,0,.42-1,8.13,8.13,0,0,1-.86-.48C40.5,44.07,40.44,44.43,41.13,44.54ZM12.35,39.28c-.28.25-.56.51-.85.74-1.34,1.11-3.2,1.9-2.85,2.52.45.78,3-1.45,4.25-2.47-.15-.2-.29-.39-.42-.6Zm50.92-1.23c-.87-.29-2,1.1-3.1,2-.48.39-1,.79-1.6,1.19-.39.26-1.55.79-1.25,1.34.39.73,2.85-1.34,3.24-1.64.62-.47.94-.78,1.52-1.25S63.29,38.82,63.27,38.05Zm-12.12-13a42.17,42.17,0,0,0,0-4.59,6.61,6.61,0,0,0-1-.57c.08.44.15.81.18,1l.18,3.45C50.58,25.16,50.59,25,51.15,25.05Zm-.31,11c.13.62,0,.55.71.71a17,17,0,0,0,1.79.19,9.59,9.59,0,0,0,.48-1A14.21,14.21,0,0,0,50.84,36.06ZM45.7,20.49c.16.64,3.32,4.64,4.15,5.77.27.37,1.19,2,1.85,1.28.29-.31-3.7-4.82-4.19-5.45C47.18,21.65,46.39,20.63,45.7,20.49ZM16,22.62a2.17,2.17,0,0,0-.28-.66,3,3,0,0,0-.25,1.37Zm48.69,6.85c1.34.37,1-.44.51-3.28-.17-1.05-.33-3.57-.82-4.23C63.85,22.7,64.34,28.47,64.71,29.47Zm8.48-9.94c.79,0,.4.12,1.2-1.25.41-.7,3-4.26,2.54-5-.67-.13-.9.62-1.2,1.14l-2,3.21C73.32,18.22,72.61,18.75,73.19,19.53Zm-36,.87a24.71,24.71,0,0,0,.38-3.71c-1,.3-1.06,1.67-1.26,3.08A14.24,14.24,0,0,0,36,23c.07-.19.15-.39.23-.58A13.82,13.82,0,0,1,37.22,20.4ZM21.14,22.61c1.37,0,3.72-.27,4.86-.34A4.22,4.22,0,0,0,27.93,22c-.66-.77-2.87-.43-4-.4-.71,0-1.34,0-1.87,0Zm20.6,22.88.15.9c.88.3,2.26-.89,3.42-1.78a15,15,0,0,1-1.54-.28A7.84,7.84,0,0,1,41.74,45.49ZM2.17,36.06c.16.65,0,.58.86.73a27.22,27.22,0,0,0,5.68.08c.43-.19.48-.56.11-.81A49.18,49.18,0,0,0,2.17,36.06ZM69,29c.09-1.16-.9-4.1-1.11-5.74,0-.33,0-.73-.1-1-.16-.81-.09-.64-.63-.74-.4.88.44,4.43.72,6.17C68,28.65,67.92,29,69,29ZM24.69,19.59c.59-.19.36-.08.7-.68l2.42-4.08c.2-.34,1.24-1.72.21-1.58-.3,0-.94,1.08-1.44,1.95H27l.16.41L24.3,19A.81.81,0,0,0,24.69,19.59Zm5.25,4.65c-.13-.46.34-.47-1.45-.58-.56,0-1.14-.12-1.71-.2-.83-.12-3.11-.7-3.33.19s2.31.64,3,.74,1.16.19,1.79.23C29.49,24.69,29.63,24.65,29.94,24.24Zm1,3.34c0-1.06-.06-1-.43-1.28-.48.25-.15-.23-.42.45h0A9.53,9.53,0,0,1,31,27.58ZM19.54,24.9l-.07-.29-.33.44ZM20.31,29a2.53,2.53,0,0,0,0-.38c-.26.05-.52.12-.76.19A1,1,0,0,0,20.31,29ZM16.22,31.1c2.05-.05,2.69.24,2.85-.84l-2.18.07A5.36,5.36,0,0,0,16.22,31.1Zm44,.54,1.63-.3c.69-.09,1.61-.14,2.08-.18,2.68-.24,3.62.34,3.76-.9-.27-.16,0-.08-.4-.13l-5.84.46C60.62,30.72,60.1,30.78,60.25,31.64ZM6.61,41.5c1-.13,4.21-2.16,5.31-3a9,9,0,0,1-.38-.9c-.52.26-1.11.88-2.19,1.56C7.52,40.3,6.54,40.31,6.61,41.5Zm48.63,0a12.39,12.39,0,0,0,3.3-1.63l2.15-1.43c.45-.36.42-.18.45-.87-.91-.29-1.7.65-3.15,1.59-.5.32-1,.58-1.53.9l-.16.09a12.13,12.13,0,0,1-1.06,1.29Zm-16.05-9a3.66,3.66,0,0,0,1.08-.27c0-.7-.4-.85-1.18-.79C39.11,31.77,39.14,32.13,39.19,32.47ZM34.64,33a1.36,1.36,0,0,0,.36.09c0-.3-.08-.6-.11-.91A.85.85,0,0,0,34.64,33ZM15.81,36.69a8.56,8.56,0,0,0,2.58-.2l2.4-.53c.69-.29.31,0,.52-.49-.47-1.08-1.86-.22-3,0-.78.15-2.16.12-2.79.61A6.57,6.57,0,0,0,15.81,36.69Zm17-16.88c.14-1.06-2.29-2.94-3-3.73-.29-.3-.82-1.08-1.31-.61-.65.61.24,1,.6,1.31a8.22,8.22,0,0,1,1.18,1.1C31.46,19.15,31.85,20,32.78,19.81ZM48.45,32.88c-.94-.06-.71.37-1.3,1.12-.36.46-.76,1-1.15,1.46-.52.64-2.28,2.41-1.77,2.95.71.77,1-.69,2.34-2.39.46-.57.72-.91,1.07-1.35S48.56,33.86,48.45,32.88Zm-36.65-12c.77.1,3.15-2.95,3.86-3.72.28-.29,1.25-1.13.86-1.53-.55-.57-1.09.41-1.41.82l-2.39,2.82C12.32,19.66,11.57,20.22,11.8,20.88Zm16.32-3.15c-.58.53.11,1,.48,1.3a11.71,11.71,0,0,1,1,1.08c2.94,3.15,3.09,1.37,1.9.37C29.79,19,28.85,17.05,28.12,17.73ZM21.51,40.19c-.08-.7-.19-1.34-.28-1.74a6.36,6.36,0,0,0-.2-.78l-.41-.6c-.42.63-.13,1.76-.05,3A9,9,0,0,0,21.51,40.19Zm45-14.79c.45-.82-.23-2.68-.4-3.69l-.46-2.94c-.14-.82,0-.54-.45-.7-.57.89.32,3.76.53,5.84C65.82,24.79,65.69,25.25,66.51,25.4ZM16.11,46A11.57,11.57,0,0,0,16,42.77a9.93,9.93,0,0,1-.94-.59l.06.75C15.22,43.79,15.08,46.11,16.11,46Zm1.22-25c-.09-.44-.17-.86-.23-1.19-.3-1.95,0-1.49-.58-1.74-.33.72-.06,2.16.21,3.67.16-.2.32-.4.49-.59Zm25.6,9.44L43,32.28c1.55.28,1-.89.9-2.18a11.92,11.92,0,0,0-.29-3.26C42.54,27,42.94,28,42.93,30.42Zm7.4,2.12c.22.77.67.66,2.35.69.57,0,1.26,0,1.86,0,.06-.36.11-.72.14-1.1-.44,0-.91.07-1.5.09l-2.27,0C50.39,32.35,50.62,32.27,50.33,32.54ZM39.6,34.62c1.06.16,2,.27,2.14-.34s-.38-.58-.92-.59a13.27,13.27,0,0,1-1.46-.12C39.42,33.93,39.51,34.28,39.6,34.62Zm17.6,4c.33-.22.53-.41.42-.89C57.49,38.08,57.35,38.37,57.2,38.66ZM3.59,41.12c1.1,0,3.61-1.5,4.57-2.17.56-.39,1-.52.81-1.26-1.1-.29-1.24.51-2.81,1.54C5.39,39.73,3.86,40.29,3.59,41.12ZM34.84,28.48a1.87,1.87,0,0,0-.64.55c-.19.58.11.66.6.49C34.81,29.17,34.82,28.82,34.84,28.48Zm25.63-7.62c.64.1,2-1.71,2.54-2.24.69-.71,2.22-2.13,2.24-3.06-1.07-.28-1.28.81-2.64,2.34ZM43.54,39.92c0-.25,0-.49.05-.7.08-.74.17-1.08-.18-1.52a2.5,2.5,0,0,0-.73,1.7A5.78,5.78,0,0,0,43.54,39.92ZM48.7,32a17.14,17.14,0,0,0-2-2.75c-.61-.83-1.44-2.35-2.29-2.51,0,.9,2.24,3.66,2.87,4.54C47.68,31.81,48,32.51,48.7,32ZM25.46,39.54c.16-.21.36-.45.62-.73.62-.65,1.91-1.91,1.16-2.16s-1,.73-2.08,1.74A3.53,3.53,0,0,0,24,40,8.49,8.49,0,0,0,25.46,39.54ZM37,46c.8.05.71-.5,1.64-1.8.21-.29,1.13-1.13,1.22-1.73-.21-.16-.41-.33-.6-.5-.54.22-1.19,1.28-1.41,1.6C37.34,44.23,36.4,45,37,46ZM.73,40.35c-.17.7.88,1.43,1.32,2a4.77,4.77,0,0,0,1.81,1.73l.64-.38c-.16-.58-2-2.25-2.58-2.85S1.26,40,.73,40.35Zm49-.11a1.54,1.54,0,0,0-.37-.09,1.8,1.8,0,0,0,0,.22Zm3,3.83.47-.59a2.12,2.12,0,0,0-.2-.24,10,10,0,0,1-1,.5A2,2,0,0,0,52.71,44.07ZM46.58,26.78c.16,1,1.81,2.83,2.68,4,.22.29.8,1.31,1.39.7.35-.37-.14-.58-1.23-1.84C48.61,28.66,47.72,27.24,46.58,26.78Zm19.27,5.64c.05-1.42-.87-.75-2.13-.57-.44.06-3.48.25-2.61,1.2a.61.61,0,0,0,.6.11l3.52-.6C65.76,32.46,65.49,32.56,65.85,32.42ZM18.56,43.83c0,.82.08,1.7.7,1.51.23-.08.34-.59.35-1.27C19.26,44,18.91,43.92,18.56,43.83Zm2.53-15.38c.13.28.32.42.61.28A.45.45,0,0,0,22,28.4C21.66,28.41,21.37,28.42,21.09,28.45Zm-.63-4.75a1.32,1.32,0,0,0-.22,1,9,9,0,0,1,.9-.19h0A1.15,1.15,0,0,0,20.46,23.7Zm-3.24,8.73c0-1.16-.26-.95-1.39-.72a5.49,5.49,0,0,0-.41,1C16,32.63,16.61,32.54,17.22,32.43Zm-1.71,2.62c.88.37,1.62-.69,2.33-1.22,1.43-1.06,2-1.06,2-1.95-1.2-.39-1.16.47-3.49,2.05a6,6,0,0,0-.62.38C15.3,34.65,15.33,34.58,15.51,35.05Zm17,2.7.6.48c.9.75,1.6,1.59,2.42,1.46.16-.78-.11-1-.62-1.31s-1.37-1-2.09-1.53C32.77,37.15,32.67,37.45,32.55,37.75ZM64.09,35c.88.58,1.84-.79,3.56-2,.5-.34.83-.42.81-1.13-.86-.31-.74-.2-1.27.34C65.81,33.63,64.07,34,64.09,35Zm6.35-6.29c.46-.78-.41-3.15-.62-4-.17-.68-.07-.8-.7-1-.54.64,0,1.53.22,2.75C69.56,27.48,69.43,29,70.44,28.69ZM58.05,19.08c-.5.2-.61,1.34-.69,2.55.12.25.23.5.34.76s.28.71.4,1.08c0-.47,0-.94,0-1.19C58.15,21.44,58.45,19.72,58.05,19.08Zm1.81,10.29.58.56a13.72,13.72,0,0,0,2.81-4.43c-1.1.16-1.69,1.56-2.65,2.75A3.09,3.09,0,0,0,59.86,29.37Zm-48.64-.09c.2.42.17.41.58.58l0-.11a24.31,24.31,0,0,1,2-3.92,7.1,7.1,0,0,0-1.1,1.4A22,22,0,0,0,11.22,29.28ZM25.15,44c.32.07.76.12,1.37.25s2.3.59,2.62-.06c.41-.83-1.54-.71-2.14-.78h0A11,11,0,0,1,25.15,44Zm18.26-7.23c.79-.12,1-1,1.53-1.69s1.53-1.13,1.29-1.91L46,33.06c-.27,0,.05-.11-.37,0C45.42,33.15,42.5,35.62,43.41,36.74ZM11.17,42.93c-.55.55,1.2,1.51,2.3,2.79.31.36.63.86,1.12.32s-1.65-2.13-2.34-2.69C11.92,43.08,11.55,42.54,11.17,42.93ZM53.71,23.79c0,.46.12.94.15,1.42s-.19,2.63.67,2.18c0,0,.06,0,.09-.07A13,13,0,0,0,53.71,23.79ZM34.09,28.27c.51-1.1-.92-1.49-1.9-2.74-.35-.44-.31-.67-.93-.73-.29.42-.33.63,0,1.13C31.77,26.61,33.34,28.33,34.09,28.27Zm33.26-7.8a19.9,19.9,0,0,0-.86-4.83c-.3-.9.09-.39-.46-.5-.4.74.28,3.12.49,4.38C66.68,20.41,66.56,20.47,67.35,20.47ZM18.68,19.35c-.16-1-.55-2.25-.71-3-.37-1.79-.13-1.07-.67-1.24-.25,1,.34,3.1.56,4.43.06.34.07.56.11.7ZM53.36,45.2c1.3.25,1.94-.37,3.08-1.25.46-.34.69-.34.41-1.1-.67-.2-.72-.08-1.09.26C54.51,44.26,53.49,44.28,53.36,45.2Zm-48.65,0C6,45.44,6.92,44.73,8,43.8c.44-.38.48-.35.24-1-.9-.24-.92.26-1.91.92C5.73,44.14,4.79,44.5,4.71,45.19ZM35.15,34.06a.32.32,0,0,0-.14,0c-.46.26,0,.76.39,1.15C35.31,34.85,35.22,34.46,35.15,34.06Zm2.59,7.39a3,3,0,0,0,.5-.51c-.13-.15-.26-.3-.38-.46A2.06,2.06,0,0,0,37.74,41.45Zm7.48,4.76a2.39,2.39,0,0,0,1.93-.81c.31-.27.67-.5.91-.73-.33,0-.66,0-1,0l-.85,0-.59.48C45.14,45.54,45.13,45.54,45.22,46.21ZM6.52,30c-.51.9.44,1.24,1,1.81.36.37,1,1.73,1.74,1.27s-.17-1-.94-1.75A4.22,4.22,0,0,0,6.52,30Zm17.11.19c-.29,1,.77.79,1.79,1s2,.81,2-.6C26.64,30.29,24.4,29.87,23.63,30.18ZM47.52,40.69a2,2,0,0,0-1.64-1,1.49,1.49,0,0,0,.3.94c.28,0,.58,0,.88,0ZM16.88,45.22h.76a6.54,6.54,0,0,0,.08-1.68,10.07,10.07,0,0,1-1.07-.45A4.7,4.7,0,0,0,16.88,45.22Zm9.3-11a9.83,9.83,0,0,0,2.89.13V34.2a4.6,4.6,0,0,0-.09-.91c-.22,0-.46.05-.71.06C26.68,33.44,26.29,33.28,26.18,34.18Zm-3.39-9.86-.13-.17c-.14-.19-.37-.83-.81-.61s-.29.51-.11.87Q22.25,24.35,22.79,24.32Zm18.49,8.54.88.08a21.73,21.73,0,0,0-.1-3.77c-1,0-.79.55-.84,1.56A5.38,5.38,0,0,0,41.28,32.86Zm8.17.66-1.36,1.91c-.21.3-.67.67-.72.92-.12.57.39.68.77.47l2-2.91C50.28,33.38,49.88,33.08,49.45,33.52ZM42.74,22l.73.06a6.14,6.14,0,0,0,0-1.86v-.05a6.08,6.08,0,0,0-.89.57A4.35,4.35,0,0,0,42.74,22Zm3-2.59a6.38,6.38,0,0,0,2.82,0,8.54,8.54,0,0,0-1.46-.12A9.81,9.81,0,0,0,45.7,19.38ZM16.85,38.15c.19,0,.41,0,.68,0,.88,0,1.21.11,1.74-.29-.05-1.33-.92-.87-1.91-.78a4.13,4.13,0,0,0-1.22.16A6,6,0,0,0,16.85,38.15ZM25,37.31a6.38,6.38,0,0,0,.18-2c.1-1,.29-1.5-.7-1.62a7.75,7.75,0,0,0-.26,2C24.21,36.63,24,37.23,25,37.31Zm-2.33,1.61h.86c.14-.49-.13-3.07-.81-3.48C22.17,36.1,22.44,38.1,22.69,38.92Zm16.37-9.83c1-.52,2.06-1.49,1.08-1.76a1.55,1.55,0,0,0-1,.38C39.12,28.15,39.08,28.61,39.06,29.09Zm6.66-2.87c0-.62-.23-.65-.53-1l-1.36-1.57c-.34-.39-.32-.51-.89-.67-.17.81.92,1.87,1.76,2.9A.77.77,0,0,0,45.72,26.22ZM41,25c-.21.18-.11-.05-.24.28a.7.7,0,0,0,0,.49c0,.46.48,2.7,1.1,2.64.87-.09.11-1.14-.24-2.65C41.37,25.11,41.46,25.2,41,25ZM34.51,36c-.58,1,.06,1,.6,1.41.38.27,1,1.24,1.39,1.06l.08,0c-.14-.28-.27-.56-.39-.85s-.15-.35-.22-.53h0a4,4,0,0,1-.58-.72C35.07,36,35.21,35.86,34.51,36ZM25,45.88c.5.76,2.21.63,3.12.49.1-1.09-.34-1-1.3-.93C26.2,45.47,25.08,45.26,25,45.88Zm3.93-20.61a1.21,1.21,0,0,0-.4.36,9.44,9.44,0,0,1,1.05.68C29.5,25.77,29.45,25.52,28.92,25.27ZM75.3,19.49a6.2,6.2,0,0,0,1.16-2.24c0-.63,0-.24-.1-.41-.72-.18-1,.6-1.28,1.15S74.34,19.3,75.3,19.49ZM26.11,19.4l.53.1a5,5,0,0,0,.85-1.41c.32-.6.63-.94,0-1.36A3.13,3.13,0,0,0,26.11,19.4ZM60.05,36.56a4,4,0,0,0,2.59.1c.13-.25.18.37.14-.4s-.63-.58-1.32-.5S60.12,35.78,60.05,36.56ZM25.12,28.93c.32.43.72.78,1.15.61-.15-.1-.31-.19-.47-.28A7.13,7.13,0,0,0,25.12,28.93Zm-4.31,3.28c.62.44,2.08.22,2.91.25-.08-1.1-.25-.84-1.3-.87a7.42,7.42,0,0,0-1.15,0C20.51,31.7,20.79,31.59,20.81,32.21Zm19.3,3.87h0c1.17-.26,1.06-.37,1.16-.77a2.32,2.32,0,0,0-1.54-.2A9.28,9.28,0,0,0,40.11,36.08ZM35.78,20c0-1.12-1.73-.93-2.28-.8-.26.63-.37,1.1.43,1.11A5.21,5.21,0,0,0,35.78,20Zm35.94-.47a4,4,0,0,0,1.34-2.47c-1.07.17-.79.36-1.42,1.06C71.29,18.51,70.58,19.23,71.72,19.54ZM47,20.66c.21.49.33.48,1,.55a4.05,4.05,0,0,0,1.59-.11c.16-.92,0-1-.92-.94S47.34,20.22,47,20.66ZM33.32,33.73l.06.06c.48.35.15.34.85.16.08-.77-.33-.89-.73-1.27a3.48,3.48,0,0,1-.26-.3,10.9,10.9,0,0,1,.08,1.29Zm-.78,5.48c-.42.4.26,1,.62,1.3s1,1,1.31.66C35.28,40.39,32.75,39,32.54,39.21Zm-20.74,6a5,5,0,0,0-1.14-.77c-.42-.27-1.28-.59-.93.4C9.8,45,11.63,47.12,11.8,45.21Zm39.77-14.3c.06.61.1.62.94.66a4.17,4.17,0,0,0,1.66-.15l0-.77A4,4,0,0,0,51.57,30.91Zm7,13.33c-.7.59,1.17,2.19,1.76,1.59s0-.83-.44-1.08S58.84,44,58.52,44.24Zm-32.58-8.6c.55.36,3.36.41,2.46-.61-.37-.42-1-.21-1.47-.1C26.23,35.08,25.83,35,25.94,35.64Zm19.32,4.88a2.83,2.83,0,0,0-.23-.68.76.76,0,0,0-.63.44A6.06,6.06,0,0,0,45.26,40.52ZM45.33,30c-.49.16-.6.26-.67.91s-.06,1.32.41,1.44C46.11,32.61,45.84,30.56,45.33,30Zm10.89,14.9c-.45.5.88,2,1.49,1.46s-.31-1.25-.79-1.48S56.36,44.74,56.22,44.89Zm-48.67,0c-.23.6.55,2.07,1.69,1.36,0-.77,0-.73-.57-1.1C7.44,44.35,7.63,44.84,7.55,44.88ZM62.45,44c1.48-.51-.22-1.92-1.13-1.89-.15.58-.13.6.22,1.05S62.05,43.89,62.45,44Zm3.84-17c-.2.55-.4,2.94.78,2.2.36-.22.14-.74.05-1.18C66.93,27.21,67.06,27.1,66.29,27ZM13.79,44c1.54-.46-.23-1.92-1.13-1.89C12.41,43.15,13.51,43.92,13.79,44Zm9.6-10.69-.86-.4a3.22,3.22,0,0,1-.58.93c-.74,1,0,1.24.94.6C23.34,34.16,23.49,34.08,23.39,33.35ZM54.56,29a.64.64,0,0,0,.2,0c0-.24,0-.48,0-.72A1.08,1.08,0,0,0,54.56,29ZM5.91,29C6.6,29.36,8,28.12,8,27.55,7.15,26.9,5.87,28.36,5.91,29Zm44,15.44c.35.62.94,1.07,1.35.66s0-.72-.25-.94A9.84,9.84,0,0,1,49.87,44.42Zm-29.58-14a1.69,1.69,0,0,0,1.31.27c.82,0,.86,0,1-.59-.44-.44-.56-.38-1.32-.33S20.41,29.78,20.29,30.42ZM71,26.66a1.55,1.55,0,0,0,0,1.24c.16.56.31.63.94.47a1.84,1.84,0,0,0-.35-1.75C71.1,26.3,71.08,26.64,71,26.66ZM11.09,32.58a4.4,4.4,0,0,0-.19-.73c-.22-.68-.19-.62-.89-.64C9.79,32,9.9,33.57,11,33Zm48.67.36c0-.74-.11-1.43-.72-1.67,0,.58-.08,1.14-.15,1.69C59.08,33.13,59.36,33.16,59.76,32.94Zm-21-14.44c0-.58,0-.64-.39-.95-.28.17-.15-.28-.36.46a4.91,4.91,0,0,0-.07.86c0,.21,0,.38,0,.53A8.66,8.66,0,0,1,38.75,18.5ZM19.1,34s0,.38,1,.29c.59-.06.63-.16.79-.61A1,1,0,0,0,19.1,34Zm43.67-4.49a1.52,1.52,0,0,0,.81-1.67c-.61,0-.76.22-1,.56C62.05,29,62.12,29.14,62.77,29.51Zm-20.6,4.94c.24.23,0,0,.31.3,1.67-.16,1.38-2.39.17-1.17C42.29,34,42.23,33.92,42.17,34.45Zm25.62-.25c.79.1,1.81.27,1.72-.74C68.8,33,67.82,33.11,67.79,34.2ZM42,24.43c-.05.74.52,2.18,1.13,1.6.35-.33,0-.73-.14-1C42.64,24.53,42.62,24.4,42,24.43ZM25,32c-.23.85,1.12,1,1.71.7l.13-.49A2.09,2.09,0,0,0,25,32Zm-1.5,8.11c-.12-.38-.06-.1-.22-.28a1,1,0,0,0-.43.35Zm5-7.69.27,0a5.63,5.63,0,0,0-.49-.94l0-.06A1,1,0,0,0,28.43,32.42ZM44.15,20.73c1,.18,1-.62.73-1.18a6.73,6.73,0,0,0-.83.28A3.08,3.08,0,0,0,44.15,20.73Zm9.44,22.12a3,3,0,0,0,.18.29c.54,0,1,0,.89-.65a.61.61,0,0,0-.19-.32c-.26.22-.53.43-.82.63ZM5,42.11c-.28.56-.11.53.14,1,1.45,0,1-.92.46-1.11S5,42.09,5,42.11ZM32.18,29c.33-.19.58-.26.4-.79s-.46-.57-.93-.64a2.79,2.79,0,0,0-.08.69,6.58,6.58,0,0,1,.42.61L32,29ZM13.32,41.19a.76.76,0,0,0,.81.22c-.25-.23-.49-.48-.72-.73A1.33,1.33,0,0,0,13.32,41.19ZM62,41c.11.19.17.58.75.42a.44.44,0,0,0,.37-.3c.21-.49,0-.56-.1-.66C62.45,40.32,62.14,40.42,62,41Zm-13.4-.71c.26-.68-.1-1.31-.68-1S47.45,40.49,48.56,40.29Zm-9.05,5.29.64,0c0-.94.16-1.17-.7-1.21C39,45.39,39.45,45.5,39.51,45.58ZM27.72,25.22c-.07-.17-.24-.28-.54-.23ZM49.18,37c.1.07-.09.16.46.22.36,0,.29,0,.59-.12C50.32,35.77,48.91,36,49.18,37Zm-.46-14.78a.62.62,0,0,0,1.12.5C50.1,22.14,49.39,21.92,48.72,22.23Zm-14.3-.48c.88.07,1.19-.05.9-.81-.5-.28-.16-.27-.79,0Zm-.53,14.13c.36-.9-.32-1.06-.64-1,0,.25-.06.49-.1.73A1.27,1.27,0,0,0,33.89,35.88ZM31.5,40.36c-.2.54.14.8.77.73.11-.35.29-.43-.08-.76S31.52,40.34,31.5,40.36ZM68.59,11.18c-.42,1.4,2.15.81,4.43.81,1.84,0,3.65.09,5.44-.05-.19-1.27-1.34-.78-2.67-.78S69.23,10.86,68.59,11.18Zm-38.88.69c.05-.53.16-.64-.48-.74l-8.13,0c-.58,0-1-.26-1.22.18-.62,1.21,3.19.71,4.48.71S28.8,12.21,29.71,11.87ZM19.47,10.54c.35-1-1-1.91-2.37-2.95l-2.25-2c-.24-.22-.5-.64-1-.35-.79.46,1.41,2.17,2.29,3C16.77,8.78,18.57,10.6,19.47,10.54Zm48.66,0c.31-.92-.25-1.15-.8-1.62l-3-2.68C64,6,63,4.94,62.52,5.25c-.7.41.53,1.34.78,1.54C64.21,7.52,67,10.56,68.13,10.56Zm-26.8,3.55c1,.55,1.14-.58,2.71-1.92s4.6-2.9,4.57-4.06c-.89-.27-.4-.19-2,1.12-.62.51-1.22.91-2,1.47s-1.27,1-1.93,1.49C42.29,12.58,41.24,13.43,41.33,14.11ZM32.5,16.43c1.43,0,.87-1.07,1.06-3.75.09-1.19.79-3.75-.08-4.52-.78.32-.61,2.91-.7,3.82A37,37,0,0,0,32.5,16.43Zm18-8.37c-2,1,6.27,3.39,6.32,3.36.93-.49-.44-1.06-.86-1.23l-1.83-.78A21.37,21.37,0,0,0,50.53,8.06Zm1,8a3.83,3.83,0,0,0,.85-.14c-.56-1.1-1-.66-3.69-.54A11,11,0,0,1,51.57,16.06Zm-7.82-.45v0a14.29,14.29,0,0,1,2.14-.33A4.78,4.78,0,0,0,43.75,15.61ZM76,10.08c-.41-.86-3.35-.52-5.22-.62-.69,0-1.65-.34-1.57.4s3.84.66,5.15.66C75.11,10.52,75.65,10.68,76,10.08ZM43.08,14.64c.75.53,1.52-.27,3-1.28,4-2.8,2.26-3.34,1-2.22-.5.45-.73.74-1.27,1.17C44.26,13.51,43.12,13.77,43.08,14.64ZM58.9,4.34c-.58.48.23,1,.71,1.42a30.34,30.34,0,0,0,3.32,3.05c.29.21.45.48.81.12.64-.64-1.11-1.64-2.12-2.58C61.36,6.11,59.27,4,58.9,4.34ZM27.32,10.08c-.38-.75-1.16-.51-2.14-.51l-4.25-.15c-.81.16-.45.88.33,1l4.74.11C26.73,10.52,27,10.63,27.32,10.08Zm52.88.51c-.91.13-.8.95-.85,2.74,0,.75-.36,3.19.26,3.49,1,.5.7-2,.71-2.67C80.34,13.06,80.69,11.39,80.2,10.59ZM46.67,14c.55.93,1.29.23,3.08-.8,1.46-.83,3-1.23,2.92-2.13-.73-.49-3,1.17-4.53,2C47.56,13.33,46.94,13.47,46.67,14ZM31.14,10.57c-.55.94-.47,3.64-.48,5,0,.57-.15,1.47.6,1.21s.41-3.23.52-5C31.83,10.9,31.86,10.74,31.14,10.57Zm7.71,3.92c.62-1-.75-1.64-1.77-2.64-.41-.41-.75-.78-1.24-1.2a2.93,2.93,0,0,0-1.56-.94c.07,1.39.89,1.68,2,2.64C37.13,13.12,38,14.46,38.85,14.49ZM68,7.6c.67,0,.63-.37,1.11-1.11l2-2.73c.43-.51,1-.78.71-1.57-.83,0-1.7,1.39-2.48,2.41C68.22,6,67.17,6.85,68,7.6ZM56.82,4.29c-.11.84,1.2,2.12,1.64,2.62s1.8,2.45,2.4,1.89-.44-1.26-1.6-2.54C58.44,5.35,57.58,4.17,56.82,4.29ZM19.32,7.61c.77-.07,1.13-1.24,2.13-2.56.32-.43.65-.87,1-1.28s1-.79.7-1.57c-.82,0-1.68,1.4-2.46,2.41-.38.48-.67.77-1.07,1.35C19.09,6.7,18.7,6.91,19.32,7.61Zm30.45,6.05c.09.3-.31.41,1.28.65,1.24.2,4.21.69,5.14.26v-.64c-.83-.18-2.19-.1-3.26-.21C52.21,13.65,50.21,13.22,49.77,13.66ZM11.05,10.43c.29.11,6.46.71,5.49-.51-.4-.51-2.2-.34-2.93-.33C11.52,9.62,11.14,9.56,11.05,10.43Zm48.66,0c.22.1,5,.62,5.56-.18-.15-.68-.24-.57-1.06-.6l-3.44,0C59.89,9.73,59.78,9.63,59.71,10.42ZM35.91,6.68c.14.91,1.66,2.16,2.61,3.41.26.35.61,1.13,1.14.64s0-1-.3-1.32l-2-2A1.49,1.49,0,0,0,35.91,6.68ZM58.22,17.9c.1-.7.14-2,.17-2.76,0-1.08.14-2.14-.5-2.49-.29.16-.41-.25-.42,1.17l-.21,3.24C57.31,17.9,57.48,17.92,58.22,17.9Zm-30.1-7.52c1.13.54,1.48-1.18,2.79-2.87.27-.34.9-.82.65-1.23C30.92,5.22,29.89,7.43,28.81,9,28.44,9.53,28.1,9.68,28.12,10.38ZM9.55,17.88c.11-.62.15-2.06.18-2.75a12.19,12.19,0,0,0,0-1.48c0-.78,0-.87-.63-1-.45.56-.24,2-.33,2.95C8.63,16.72,8.17,18,9.55,17.88Zm.5-5.8a43.06,43.06,0,0,0,5.07.49c0-1.22-.49-.84-2.37-1.11C11.65,11.29,10.4,11.13,10.05,12.08Zm48.67,0a27.07,27.07,0,0,0,5,.46c.18-1.17-.52-.8-2.36-1.07C60.35,11.3,59.12,11.13,58.72,12.06ZM40.44,9.59c.22.24-.21.07.4.31.29.1,4.68.45,4.49-.61-.12-.7-1.75-.23-2.41-.19C42,9.16,40.89,8.88,40.44,9.59Zm-22,4.5s-.05.05-.05.13-.28-.06,0,1.19c.08.37.2.79.3,1.16.22.86.22,1.61.89,1.67l.5-.6c-.11-.57-.41-1.19-.56-1.73C19.25,14.92,19.4,13.81,18.45,14.09Zm48.66,0c-.38.68,0,1.7.25,2.48.27,1,.2,1.95,1.39,1.61a5.94,5.94,0,0,0-.57-2.27C67.68,14.09,68,13.81,67.11,14.09ZM19.82,12.73c-.48.69-.06,1.53.15,2.38.12.48.26,1.57.73,1.77l.61-.74a20.82,20.82,0,0,0-.75-2.57C20.35,12.87,20.42,12.79,19.82,12.73ZM25.48,7c.08-1.06-.26-1.08-1.27-1.1l-2-.1c-.54.07-.25-.08-.5.21C20.81,7.08,24.83,7.11,25.48,7Zm43,5.74c-.47.77-.06,1.51.16,2.39.16.62.34,2.19,1.2,1.71.49-.28-.27-2.09-.61-3.25C69,13,69.09,12.8,68.47,12.72ZM74.13,7c.11-1.13-.44-1.09-1.42-1.11-.51,0-2-.24-2.26,0C69.24,7,73.47,7.11,74.13,7ZM51.38,5.57c-.71.87.44,1.15,1.61,2.57.3.36.36.79.94.6C55.43,8.26,52,5.83,51.38,5.57ZM19,4.42c.05,0,0,.63.85-.34.62-.66,2.17-2.15,1.66-2.67-.71-.74-1.26.66-2.25,1.91C18.82,3.83,18.77,4,19,4.42ZM35.84,16a5.55,5.55,0,0,0,2.35-.07,4.68,4.68,0,0,0,2.1-.48c-.63-.65-1.46-.5-2.47-.42S35.45,14.85,35.84,16ZM15.41,3.89c-.28.71.61,1.29,1.05,1.72a8.32,8.32,0,0,1,.78.86c.43.49.42.43,1.13.22,0-.91-.88-1.46-1.95-2.5A1.56,1.56,0,0,0,16,3.84C15.22,3.59,15.66,3.8,15.41,3.89ZM72.18,8.61c.15-1.1-.08-1.13-1.1-1.09-.57,0-2-.27-2.22.21C68.22,8.83,71.65,8.8,72.18,8.61Zm-51.85-1c-.2.2-.15-.07-.13.32s.52.57,1.07.65c3.55.53,2.55-1.15,1.32-1.12C22,7.52,20.68,7.31,20.33,7.65Zm13.6-2c.65.56,1.21.24,2.15.2s1.84.29,1.73-.81a7.41,7.41,0,0,0-2.22-.14C34.66,4.9,34,4.69,33.93,5.69ZM36,17.31a5.63,5.63,0,0,0-2.3-.32,3.48,3.48,0,0,0-1.16,0,.66.66,0,0,0-.45.71c.15.59,1.54.3,2.2.29C35.17,18,35.91,18.17,36,17.31Zm17-5.18c.21.81.82.75,1.69.84a21.86,21.86,0,0,0,2.29.14c0-1.15-.28-1-1.48-1A9,9,0,0,0,53,12.13Zm7.69,1.69c.1.54,0,.4.54.61,2.66.94,4.11,0,3-.5C64.15,13.93,61.15,13.48,60.65,13.82ZM12,13.82c.09.54-.07.53,1.61.84.55.1,1.94.39,2.21-.11.42-.78-1.09-.7-1.55-.72C13.42,13.81,12.61,13.4,12,13.82ZM34.27,12c-.39,1.16.5,1.35,1.47,2.14,1.13.91,1.88.31.22-1C35.4,12.69,35.13,12,34.27,12Zm31.37,2.45c.86-.07.62-.27,1.18-1,.3-.41.8-.77.94-1.27l-.28-.47c-.86.06-.87.44-1.43,1.14S65.22,13.7,65.64,14.49ZM30.22,10.11c.76.34.86.27,1.31-.51.16-.27.83-1.29.75-1.63C32,6.69,31,8.5,30.55,9.1S30.22,9.45,30.22,10.11ZM17,14.49c.84-.06.62-.27,1.16-1,.93-1.28.74-.48,1-1.27l-.38-.53C18.24,11.8,16.31,13.36,17,14.49Zm26.4-3.59c-.62-.42-3.49.15-3,1,.35.62,1.16.07,1.65-.12.31-.12.6-.18.85-.28C43.5,11.29,43.35,11.54,43.39,10.9ZM18,3.85c.15-.76-.28-.78-.75-1.27C14.65-.06,16.31,4.94,18,3.85ZM60.54,16.27c.34,1.09,2.17.6,2.52.46v-.86A2.67,2.67,0,0,0,60.54,16.27Zm-48.66,0c.27.91,1.82.75,2.51.46v-.85A2.64,2.64,0,0,0,11.88,16.27ZM70,13.5c.56.37,1,.14,1.63,0,.87-.16.94-.1,1.06-.42.24-.61,0-.48-.06-.49-.61-.26-.88-.12-1.54,0S70,12.78,70,13.5Zm-48.67,0c.6.39,1,.13,1.65,0,.84-.14,1.29,0,1-.88,0,0-.1-.1-.12-.06s-.1,0-.14-.05C23.32,12.47,21.29,12.49,21.28,13.5Zm12.95,2.84c.74-.06.77-.49.75-1.21s0-1.41-.7-1.6A3.7,3.7,0,0,0,34.23,16.34ZM74.16,15c.73-.21,1.38-1.68,1.44-2.29-.94-.09-1,.34-1.37.87S73.34,14.54,74.16,15Zm-48.93-.08c1,.32,1.68-1.87,1.72-2.22C25.94,12.6,24.82,14.1,25.23,14.91Zm39.4-1.66c.69-.11,1.27-1.43,1.19-2.14C64.88,11,63.63,12.54,64.63,13.25ZM16,13.25c.75-.12,1.26-1.52,1.2-2.14C16.26,11,15,12.51,16,13.25Zm38.6,4.66A4.21,4.21,0,0,0,54,15a3.65,3.65,0,0,0-.22,1.76c0,.2,0,.38,0,.53C54.07,17.49,54.33,17.69,54.57,17.91Zm-25.3-3.12c1.44.19,1.05-1.42.7-2.12-.51.09-.59,0-.74.67A3.54,3.54,0,0,0,29.27,14.79Zm48.8,0c.73,0,.86-.24.83-1s0-1-.74-1.16A2.18,2.18,0,0,0,78.07,14.83ZM75.23,6.44c-.11.62-.12.65.63.79a2.38,2.38,0,0,0,1.54-.08c.07-.64.13-.66-.66-.76A3.73,3.73,0,0,0,75.23,6.44Zm-48.72.39c.38.58,1.58.54,2.29.38.08-.73-.08-.75-.87-.83S26.65,6.21,26.51,6.83ZM26,8.45c.17.24,0,.1.23.28a1.57,1.57,0,0,0,1.63.1c.08-.59-.07-.64-.66-.74S26.09,7.92,26,8.45Zm48.69-.16c.08.45,0,.47.67.64a1.3,1.3,0,0,0,1.17-.09C76.65,7.79,75.12,7.91,74.66,8.29ZM49,10.08c.31.91,1.53,1,1.4,0A.71.71,0,0,0,49,10.08Zm24.5-1.16c1.09-.22.83-1.32.16-1.35S72.8,8.41,73.51,8.92Zm-48.66,0c1-.21.87-1.31.16-1.35S24.16,8.44,24.85,8.92Zm45.32,6.14c1,.51,2.12-1,.34-1.1A1.45,1.45,0,0,0,70.17,15.06Zm-48.66,0c.92.34,1.59-.42,1.09-.94S21.44,14.38,21.51,15.06Zm-10,3.48a1.19,1.19,0,0,0,1.34,0c0-.48,0-.79-.64-.76C11.7,17.84,11.56,18.12,11.47,18.54Zm48.67,0a1.14,1.14,0,0,0,1.33,0V18C60.89,17.77,60.19,17.74,60.14,18.54ZM58.53,9.27c.19.1-.28.21.31.1s.54-.74.33-1.21C58.43,8.18,58.19,8.63,58.53,9.27Zm-48.68,0c.3.16-.37.23.33.11s.51-.8.33-1.2C9.79,8.18,9.56,8.61,9.85,9.26ZM13.44,3c.07.91.3,1,1.13.75L14.52,3Zm29,13a.57.57,0,0,0,0,.13l.61-.22A1.51,1.51,0,0,0,42.43,15.94Zm31.32.39c.19-.65,0-.95-.82-.82C72.7,16.38,73.07,16.58,73.75,16.33ZM39.08,7.71C39.37,7,39,6.54,38.53,7a.51.51,0,0,0-.1.59C38.67,8.06,38.9,7.78,39.08,7.71ZM4.83,47.46c0,.62,0,.67.73.77.35.05,1,.05,1.39.06,1,0,2,0,2.93-.1s1.93-.14,2.9-.23,2.21.1,1.94-1.07c-.75-.42-3.55.16-4.67.27S5.53,47.22,4.83,47.46ZM19.93,61c-.16.51-.13.2,0,.72a64.8,64.8,0,0,0,9.75,0c.06-1.21-1.66-.67-4.54-.73-.88,0-1.73-.07-2.61,0A9.43,9.43,0,0,0,19.93,61Zm-.49-10.65c.92,0,2.08-2.38,2.75-3.52a25.23,25.23,0,0,0,1.39-2.58c-.3,0-.61.05-.92.06l0,0a29,29,0,0,1-2.3,3.88C19.92,48.88,19.25,49.39,19.44,50.32Zm16.45,1.42c0-1.13-.68-.73-3.39-.81-.69,0-1.44,0-2.12,0s-1.4-.41-1.7.13c-.69,1.21,2.46.77,3.17.77C33,51.79,35,52.13,35.89,51.74Zm-8.58,8.14c-.44-.89-2.38-.5-3.35-.55l-1.88-.07c-.69,0-1.62-.34-1.56.4.08.91,2.47.56,3.29.61S26.93,60.62,27.31,59.88Zm4.6-14.45a24.39,24.39,0,0,0-3.23,3.65c-.5.68.11,1.13.75.77a30.26,30.26,0,0,0,2-2.58,12.63,12.63,0,0,0,1.11-1.21C33.05,45.34,32.67,44.82,31.91,45.43Zm7.65,4.68c0,2.9-.25,3.48,1,3.16.1-.69-.16-2.51-.19-3.48,0-.66,0-1.3,0-2,0-.83.13-1.36-.62-1.39C39.15,47.06,39.57,49.08,39.56,50.11ZM39,64.25c.21-1-.25-1.07-.71-1.51S37.47,62,37,61.57s-1.82-2-2.72-2c.07,1.43,1.06,1.76,2.06,2.72.47.45.69.7,1.15,1.12S38.11,64.39,39,64.25ZM19.32,57.39c.68-.07.76-.51,1.13-1.1l2-2.73c.42-.52,1-.8.7-1.57-.84,0-1.53,1.24-2.47,2.41S18.57,56.58,19.32,57.39Zm4.15-3.52s-.92.3.62.75c.87.25,4.38,1.14,4.82.68s-.22-.81-.52-.89-1.21-.16-1.72-.26S24,53.47,23.47,53.87ZM8.05,49.14c.24,1.14,1.56.45,2.8.37.92-.06,3,.31,3.39-.53-.68-.51-2.12-.37-3.06-.35C10.4,48.64,8.64,48.59,8.05,49.14Zm24.86-1.47c.23.37.06.19.41.44.8-.28,4-5.07,4.11-5.65-.94.06-1.59,1.27-2.48,2.46C34.22,45.91,33.05,47.07,32.91,47.67ZM49.05,46c.12.83.31.83,2.32.89.91,0,2.24.16,2.94-.33.16-1.19-1.3-.77-2.14-.72A16.59,16.59,0,0,0,49.05,46ZM27.27,53l.82,0A27.24,27.24,0,0,0,28,50.27c0-.72,0-2.38-.67-2.41S27,49.46,27,50.27A8.31,8.31,0,0,0,27.27,53Zm-12.51-.85c.54-.29.76-1.65,1.2-2.82a11.73,11.73,0,0,0,1-3.15c-1,.24-1.19,1.46-1.75,2.87C14.46,50.9,13.79,51.75,14.76,52.18Zm21.11,4.28c.24.95,2,2.57,2.65,3.43.25.32.62,1.12,1.14.64.73-.67-.5-1.53-1.38-2.36S37.09,56.53,35.87,56.46ZM34.7,53.94c.67.11.88-.32,1.24-.72A20.32,20.32,0,0,0,38,50.88c.52-.71.87-.53.88-1.44-.93-.22-.87,0-1.36.64L36,52C35.54,52.52,34.73,53.14,34.7,53.94ZM28.12,60.2c.78.3.93,0,1.95-1.61a18.76,18.76,0,0,0,1.58-2.44c-1-.9-1.38.52-2,1.4C29.22,58.25,28.1,59.4,28.12,60.2Zm.58-6.83c.19.19-.15.09.42.29l2.07.18c.69,0,2.54.31,2.56-.48s-1.77-.5-2.39-.48C30.13,52.92,29.26,52.69,28.7,53.37Zm-.39-6c1.33.53,3.31-3.12,3.28-3.46-.95-.37-.93.2-1.89,1.34C29.14,45.87,28.18,46.36,28.31,47.32Zm16.9,0A6.16,6.16,0,0,0,45,50c0,.44.19,2.49,1,1.63.22-.48-.1-1.69-.09-2.45S46.14,47,45.21,47.35ZM25.46,56.77c.13-1.05-.31-1.07-1.25-1.09-.64,0-2.12-.33-2.48.09C20.78,56.87,24.82,56.91,25.46,56.77Zm.1-9.27L23,50.38c-.33.47-.28,1.16.47.84L26,48.29C26.35,47.66,26.23,47.16,25.56,47.5ZM21.5,50.05c.56-.15,2.84-3.45,2.65-4.43-1.1-.18-1.15.91-1.62,1.85S21.41,49,21.5,50.05Zm-1.18,7.39c-1.12,1.09,2.78,1.26,3.1,1,.59-.54.09-1.13-.83-1.11C22,57.32,20.67,57.1,20.32,57.44Zm1.3-6.23c-1-.4-1.1.11-1.61.89-.29.44-1.26,1.42-1.14,1.91.27,1.11,1.69-1.06,2.24-1.62A1.33,1.33,0,0,0,21.62,51.21Zm12.32,4.28c.65.56,1.19.23,2.14.2s1.84.3,1.74-.81a7.46,7.46,0,0,0-2.23-.14C34.67,54.7,34,54.47,33.94,55.49Zm-15.57,1c0-.9-2.55-3.5-3-2.7-.29.51.86,1.41,1.17,1.7C17.38,56.26,17.2,56.82,18.37,56.49Zm1-8.38a5.62,5.62,0,0,0,1.4-1.62c.25-.36,1.42-1.61.63-2s-1.16,1.17-1.4,1.57C19.61,46.66,18.88,47.35,19.34,48.11Zm11.73,1.72a2.81,2.81,0,0,0,1.73.25,4.65,4.65,0,0,0,1.81-.29c.08-1.25-.7-.89-1.72-.76S31.35,48.9,31.07,49.83Zm10.49,3.06c.87-.17.95-2.07.88-2.93l-.13-.55c-1-.35-1,.29-.94,1.19A8.63,8.63,0,0,0,41.56,52.89Zm-7.27,9c-.49,1.35,2.06,2.64,2.35,2.48.72-.43-.4-1.15-.69-1.39C35.34,62.43,35.17,61.82,34.29,61.85Zm1.15-15.17c.11.7.29.68,1.17.78a7.52,7.52,0,0,0,2,0l.09-.78C38.15,46.43,35.8,46.28,35.44,46.68ZM30.2,59.91c.79.37.87.27,1.33-.51.18-.3,1.51-2.5.07-1.92A5.38,5.38,0,0,0,30.2,59.91ZM34.94,48.6c.47,1.26,2.65.59,3,.29,0-.9-.27-.88-1.17-.72S35.43,48.23,34.94,48.6ZM18.75,46.45c-.76.08-2.26,2.52-1.71,3s1-.75,1.16-1.12A3.32,3.32,0,0,0,18.75,46.45ZM41.15,48c.56.16,3.52.24,2.87-.89-.26-.45-1.19-.06-1.65,0C41.54,47.19,41.15,47.11,41.15,48Zm-25.3,3.71a2.14,2.14,0,0,0,.7,1.52c.42.53.72.83,1.43.46.11-.68.18-.33-.17-.73S16.47,51.43,15.85,51.69Zm25.93,2.46c-.67.26-.55.5-.59,1.33,0,.64-.27,1.4.43,1.46C42.75,57,42.16,54.57,41.78,54.15ZM21.28,63.3c.61.38,1,.14,1.64,0,.9-.15,1.3,0,1-.92a4,4,0,0,0-2.33.25C21,63,21.29,62.61,21.28,63.3Zm4,1.4c.79.15.74-.12,1.1-.73a3.24,3.24,0,0,0,.59-1.46C26,62.38,24.81,63.94,25.24,64.7Zm11.67-11c.72.09,1.07-.18,1.62-1.14.28-.5.22-.15.13-.78C37.42,51.33,36.89,53.3,36.91,53.69Zm3.63.59c-.68-.31-.79,0-1.12.48-.14.19-.74.84-.39,1.2C39.84,56.82,40.56,54.84,40.54,54.28ZM29.25,64.6c1.48.14,1.08-1.48.72-2.13-.55.09-.63.11-.74.67A4.47,4.47,0,0,0,29.25,64.6ZM28.79,57c0-.82,0-.75-.86-.83-.52-.05-1.18-.14-1.38.22C26.1,57.26,28.37,57.11,28.79,57Zm-10-5.26c-.27-.55-.18-.3-.72-.67-.37-.26-.39-.4-1-.44C16.86,51.71,18,52.87,18.75,51.74Zm6.14.79C26,53,26.14,51.88,26.13,51A1.24,1.24,0,0,0,24.89,52.53ZM26,58.25c.41.56,1.52.78,1.84.33C28.28,57.93,26.3,57.34,26,58.25Zm-1.5-.73c-.13.73-.16.8.38,1.2C26.25,58.44,25.4,56.82,24.47,57.52Zm-2.61,6.37c-.53.34-.51,1.44.37,1S22.68,63.35,21.86,63.89Zm3.25,2.26c.15-.71-.14-1-.85-.84C24.08,66.07,24.35,66.33,25.11,66.15Zm14-8.65c.27-.63-.07-1.21-.55-.72a.52.52,0,0,0-.1.59c.11.24,0,.15.27.22C39.36,57.75,38.93,57.56,39.08,57.5ZM20.27,0a3,3,0,0,0-.61.23,1.65,1.65,0,0,0-.24.22s0,0,0,.08A1.42,1.42,0,0,0,20.27,0Zm3.46,1.21L22.89.86a.67.67,0,0,0,0,.46s.1,0,.12.06.1.05.13.05A.58.58,0,0,0,23.73,1.21Zm2.37.38a1.18,1.18,0,0,0-.74-.2,1.36,1.36,0,0,0-.48,1.33l.74.19A2.86,2.86,0,0,0,26.1,1.59Zm1.7,1.65q-.36-.45-.75-.87a2.84,2.84,0,0,0,.22.86ZM29,5.14a4.25,4.25,0,0,1-.27-.46c-.65-.16-2.23-.38-3.11-.54-1.53-.28-5.25-.06,1.17,1.26C27.73,5.6,29.19,6.07,29,5.14Zm4,.17a2.45,2.45,0,0,1-1,0c.17,1.34,2.68,3.12,3.64,4.12a19,19,0,0,0,2.06,2.18c1.73,1.39,1.24,2.12,2.42,1.86.28-1-1.1-1.9-1.65-2.47L35.32,7.75a11.14,11.14,0,0,1-2.11-2.12A3.19,3.19,0,0,1,33,5.31Zm7.18.35a.89.89,0,0,1-.73-.27l-.21-.2c-.2.27-.49.69-.22,1C39.52,6.67,39.93,6.25,40.19,5.66Zm2,1.16a1.55,1.55,0,0,1-.76-.49,2.62,2.62,0,0,0-.22-.25l0,0,0,0h0c0,.58.18,1.11.54,1.14A.49.49,0,0,0,42.15,6.82Zm5.49.71c-.51,0-1.18-.06-1.58-.11l-.91,0a4.54,4.54,0,0,1-.6,0L44,7.42a17.47,17.47,0,0,0-3.88.47c.26.82.8.63,1.79.58l2.12-.17,3-.46C47.59,7.69,47.65,7.72,47.64,7.53Zm3-2.85a2.58,2.58,0,0,0-1.06.81l-.05.06,0,0-.09.08-.3.26a6.82,6.82,0,0,0-.6.66.56.56,0,0,0,0,.12c.8.08,1-.52,1.37-1S50.41,5,50.65,4.68ZM54,3.7c-.36.11-.72.23-1,.31,0,.07.08.16.13.24.75,1.43,1,2.42,1.57,3.64.65,1.41.54,1.42,1.23,1.35.44-.86-1.11-3.71-1.72-5.08A3.45,3.45,0,0,1,54,3.7Zm2-.21a8.24,8.24,0,0,0-.85,0h-.07c.74,2.09,1.86,6.64,2.3,7.25,1.26,0,.52-1,.27-1.87S56.68,5.34,56,3.49Zm1.77.11a5,5,0,0,1-.78,0,.71.71,0,0,0,.72.13A.52.52,0,0,0,57.78,3.6Zm3.4.15a9.16,9.16,0,0,0-2-.19l.22.15c.42.28,1.17,1.08,1.67.75A.43.43,0,0,0,61.18,3.75Zm5.13,1.62a3.44,3.44,0,0,1-1.14-.07l-.42,0,.39.34c.5.46,1.13,1.74,1.82,1C67.27,6.29,66.74,5.75,66.31,5.37Zm3.66-3-.21.07c-.48.16-.59.18-.81.6-.32.61-1,.77-1.42,1.07a.85.85,0,0,0,.11.3c.63.25,1.13-.67,1.52-1.13C69.4,3,69.73,2.68,70,2.38ZM72.59,1a1.8,1.8,0,0,0-.65.49C72.19,1.46,72.38,1.26,72.59,1Zm2.18.53-.12-.15a1.94,1.94,0,0,1-.1-.17,1.25,1.25,0,0,0-1,1.56l.75.16A3.51,3.51,0,0,0,74.77,1.5Zm1.31,1.73-.27-.35a1.59,1.59,0,0,0,.13.35Zm1.51,2.25,0-.06a3.3,3.3,0,0,0-.3-.65A15,15,0,0,0,73.67,4a2.26,2.26,0,0,0-1.8.18c.28.66,1.71.83,2.73,1C75.27,5.37,77.15,6,77.59,5.48Zm.84,3.78a4.43,4.43,0,0,0-.18-1.36c-.74,1.08-1.51,1.75-1.47,2.49C77.47,10.68,77.63,10.49,78.43,9.26Zm1.45.81a1.45,1.45,0,0,0-.4,0,2.57,2.57,0,0,1-.62,0v0C79.46,10.37,79.62,10.41,79.88,10.07Zm1.35,4.27a3.78,3.78,0,0,0,.34-1.3c0-.25,0-.39,0-.63,0-.39.06-.76.06-1.18,0-.06,0-.1-.13-.13,0,.35,0,.66,0,.88C81.4,12.42,81.3,13.4,81.23,14.34Zm-.08,1.89.21-.11c.26-.12.21-.24.21-.58l0-.76a2.37,2.37,0,0,0-.39-.24A16,16,0,0,0,81.15,16.23ZM78.8,17.78l.4-.26a2.87,2.87,0,0,0,.36-.26l0,0c-.89-.88-1.88-2.32-2.44-1.77S77.65,16.65,78.8,17.78Zm-2.12.69c.14-.28.42-.76.71-.76a.93.93,0,0,1,.22,0,.59.59,0,0,0-.76-.11A.5.5,0,0,0,76.68,18.47Zm-1.29,2.35a.83.83,0,0,1,.08-.12A2,2,0,0,0,75.8,20a31.49,31.49,0,0,0-3.51.29c-2.9.22-3.89-.22-3.94.87.72.52,5-.11,6.47-.26Zm-.85,1.52.09-.24a5.28,5.28,0,0,1,.3-.58,28.75,28.75,0,0,0-6.17.36c.06,1.11.54.85,1.64.71S73.19,22.43,74.54,22.34Zm-.44,1.95,0-.18c.06-.28.11-.57.16-.85-.9-.14-1.88-.2-2.15.29C71.74,24.28,72.79,24.22,74.1,24.29Zm-.62,1.49.22-.1.33-.19V25a1.63,1.63,0,0,0-.56-.3A1,1,0,0,0,73.48,25.78Zm-.81,1a.93.93,0,0,0-.07-.43,1,1,0,0,1,0-.3l.37-.11a5.65,5.65,0,0,0-.86-.9c-1.17-1.22-.72-1.48-1.64-1.47-.44.73.44,1.46.82,2A3.53,3.53,0,0,0,72.67,26.78Zm-2.14,3.89,0,0c.34-.28.08-.42.59-.61-.12-.34-.37-.3-1.06-.28s-1,0-1.15.66A2.25,2.25,0,0,0,70.53,30.67Zm-.43,1.75a1.89,1.89,0,0,1,.11-.25,4.17,4.17,0,0,0,.23-.6,3,3,0,0,0-1,.11l0,.53A1.55,1.55,0,0,0,70.1,32.42Zm-3,4.06c0-.11.18-.23.3-.23a1.55,1.55,0,0,1,.32,0l.25,0,.31-.06.16-.09c.24-.14.5-.25.6-.52l.14-.46a1.5,1.5,0,0,0,.56-.05c-.67-.5-2.25.27-4.54.61-.77.11-1.19.07-1.22.81A8.16,8.16,0,0,0,67.08,36.48Zm-1.15,1.74v-.06a2.41,2.41,0,0,1,.1-.43c.54-.12.59-.12.93-.51.08-.1.16-.14.18-.27-.87,0-2.11.11-2.47.63A1.41,1.41,0,0,0,65.93,38.22Zm-.22,1.7a1.48,1.48,0,0,1,0-.21c0-.16.36-.4.36-.79v-.05a1.34,1.34,0,0,0-.79.22C65.28,39.6,65.44,39.83,65.71,39.92ZM63.9,44.27l.38-.44a3.14,3.14,0,0,1,.31-.32c.2-.25-.07-.72,0-1.22-.16-1.41-.35-2.69-.37-2.73-1,.14-.7.65-.46,3.4C63.85,43.45,63.88,43.89,63.9,44.27ZM63.27,46c-.2-.2-.37-.36-.37-.52s.1-.17.19-.24c-.26-.26-.69-.49-1.06-.86s-1.62-1.6-2-1.52c-1.13.21.82,1.61,1.07,1.84.92.89,1.21,1.53,2.08,1.55A1.87,1.87,0,0,0,63.27,46ZM59.76,51.5a1,1,0,0,0,.56-.27c.19-.26.18-.56.42-.76a4.9,4.9,0,0,0-1,.31ZM58,51.21a.54.54,0,0,0,.54.38ZM56.78,49c.33.22.83,0,1,.33a1.25,1.25,0,0,1,.06.36l.14,0a13.7,13.7,0,0,1,1.72-.21c.47,0,1.26.06,1.95,0a2.17,2.17,0,0,0,.06-.54c0-.14-.13-.24-.18-.38v0c-.64,0-1.33,0-1.82,0l-2.41.21C56.77,49,56.79,49,56.78,49Zm-1.86-1.76a2.28,2.28,0,0,0,.39.28c.75.38,1,.21,1.13.69l5-.29.57,0,.3-.18,1.09-.66,0,0a1.41,1.41,0,0,0,0-.18c-.75-.41-5.23.43-7.45.43C55.54,47.32,55.2,47.3,54.92,47.28Zm-.68,1a4.78,4.78,0,0,0,.41-1c-.57,0-.91,0-1.17.4C53.58,48,53.84,48.18,54.24,48.24Zm-2.45,0a.85.85,0,0,1,0,.23l.92,0Zm-1.43.56a.6.6,0,0,0,.08-.08c.17-.16.42-.44.67-.66-1.34-.39-3.63-1.42-4-1.05-.76.77.72,1,1.2,1.13Zm-2,2.27h.12c.28,0,.23-.14.29-.47.11-.6.37-1.15.44-1.47l.15,0v-.07c-.72.09-.72,0-.91.73A2.13,2.13,0,0,0,48.38,51.07ZM46.94,52a1,1,0,0,1,.3-.33c.19-.11.43,0,.54-.2s0-.21.08-.3,0,0,0,0l0-1.36a2.58,2.58,0,0,0,0-.48c-.16-.93.19.59-.08-.29l-.11-.26c-.85-.18-.74.23-.73,1Zm-1.7,1.67.35-.25a.76.76,0,0,0,.2-.2l.15-.21a.37.37,0,0,1,0-.11C45.29,53.05,45.27,53.05,45.24,53.67Zm-1.67,1.81c.29-.19.39-.61.6-.87a5.31,5.31,0,0,1,.38-.42c0-.76-.13-1.58-.18-2.12-.09-.92.15-2.94-.64-3.45-.46.23-.45.16-.42.89l.24,4.67A7.68,7.68,0,0,0,43.57,55.48Zm-.73,2.76c.11-.61.37-.62.37-1,0,0,0,0,0,0-1.49.11-2.81.22-3,.7C40.53,58.31,41.64,58.34,42.84,58.24Zm-.25,1.57a2.46,2.46,0,0,1,.06-.74,1.24,1.24,0,0,1,0-.16c-1,.05-2-.31-2.25.68A12.41,12.41,0,0,0,42.59,59.81ZM41.5,61.87a1.68,1.68,0,0,0,.42-.66,1.47,1.47,0,0,1,.37-.6c-1.1.14-2.47.55-1.83,1.23C40.74,62.12,41.12,62,41.5,61.87Zm-2.52.9c.14.14.27.3.4.44a1.1,1.1,0,0,0,.72,0c.28-1.12-1.67-2.46-2.76-3.48l-3.12-3.22a5.1,5.1,0,0,1-1-1.12c-.43-.61-.44-.94-1.15-.86-.73,1.31,2.63,3.63,3.56,4.64a15,15,0,0,0,2.05,2.18,5.61,5.61,0,0,1,1.07,1A2.36,2.36,0,0,1,39,62.77ZM36.31,64.9h.17a13.21,13.21,0,0,0,2.07-.12l-.78.06C37.24,64.87,36.7,64.82,36.31,64.9ZM34,65l.25.09a1.8,1.8,0,0,0,.77,0c0-.09,0-.19,0-.29-.05-.81,0-1.26-.65-1.43A3.79,3.79,0,0,0,34,65Zm-1.43-.2a4.37,4.37,0,0,0,.76,0l.23,0c0-.63,0-1.49.06-2.58a27,27,0,0,0,.26-3.51c-.09-.7-.09-.64-.56-.77-.53.63-.42,2.93-.52,4C32.72,62.46,32.59,63.71,32.53,64.75Zm-1.87.57a.44.44,0,0,0,.35-.21,3.69,3.69,0,0,0,0-.67c.08,0,.1.09.15.15a1,1,0,0,0,.52.4c0-.35,0-.71,0-1,0-1.11.35-2.71-.12-3.56-.91.15-.8,1.09-.84,2.74Zm-2.16.82a3.5,3.5,0,0,1,.35-.12v-.2c.38,0,.65.16,1,.16-.57-.61-1.07-1.06-1.44-.71S28.19,65.84,28.5,66.14Zm-6.13-.07h.09c.29,0,.4.13.69.14h.14c.38-.59.63-1.09,1-1.68.3-.44,1.21-1.43.72-1.89s-1.81,2.08-2.38,3C22.57,65.78,22.48,65.92,22.37,66.07ZM19.6,63.44c.06.12.1.23.17.36a5.91,5.91,0,0,0,1.39,1.46c-.18-.6-.45-1.31-.61-1.9s-.09-.77-.75-.85A1.51,1.51,0,0,0,19.6,63.44Zm-.87-1.91c.08.29.19.49.27.75.08-.18.05-.38-.16-.76Zm-.08-2.88h-.54a5.83,5.83,0,0,0,.16,1.17,2.32,2.32,0,0,0,1.19.54C19.68,59.74,19.31,59.23,18.65,58.65ZM17,57.25a2.06,2.06,0,0,1,.23.41,1,1,0,0,0,.47.64,2.1,2.1,0,0,0,.9.27c-.41-.36-.91-.74-1.46-1.19Zm-3.43-4.38c.19.15.37.32.56.48s.18.15.27.23a.86.86,0,0,0,.21-.07l-.05-.69-1,0A.36.36,0,0,1,13.53,52.87Zm-2.42-1.36a3.22,3.22,0,0,1,.49.17c.82,0,2.17-.33,2.26-.81.2-1-2.41-.3-2.8-.1Zm-3.6-.31c.43,0,.75.07,1.25.1l.87.1c-.81-.63-2.05-1.54-2.41-1.33S7,50.74,7.51,51.2Zm-1.68.06a2.09,2.09,0,0,0,.43,0h.08A.36.36,0,0,0,5.83,51.26Zm-2.53.08a8.42,8.42,0,0,0,1.22,0,1.12,1.12,0,0,0,.1-.71C4,50.48,3.86,50.6,3.3,51.34Zm-2.13-.05h0a5.33,5.33,0,0,1,1.2,0,4.25,4.25,0,0,0,.62-1c0-.29,0-.35-.31-.43-.66-.19-.57.1-.63.16ZM.51,49.12c-.18.29,0,.56-.26,1.05a1.8,1.8,0,0,0-.25.77c0,.2.17.32.36.38a2.92,2.92,0,0,0,.34-.13l0-2.1ZM.37,47.41a1.18,1.18,0,0,1,0,.51.65.65,0,0,0,.06.53l1.3.34c.85.24,3.5,1.21,4.07,1.06l0-.23c-.06-.61-.52-.66-1.28-.9L.5,47.46ZM.61,46a.43.43,0,0,0,.05.43.82.82,0,0,1,.11.17,5.81,5.81,0,0,0,1.33.27,19.18,19.18,0,0,0,3.15-.06c.57-.2.65-.63.15-.94a2.61,2.61,0,0,0-1.44,0c-.77.08-2.65-.06-3.19.11Zm.33-2.53a.31.31,0,0,1,0,.1.13.13,0,0,1,0,.06c.05.68.61,1.88,1.67,1.53.24-.8.05-.62-.45-1.11s-.44-.61-1.22-.58ZM.61,37.84a3.6,3.6,0,0,0,.1.43.76.76,0,0,1,0,.61,18.5,18.5,0,0,0,4.53-.06c.22-1.27-.48-.77-3.51-.89Zm.25-1.56a1.57,1.57,0,0,1,0,.23c-.08.28-.14.47-.19.63.23.21.61.09.94,0C1.64,36.33,1.39,36.09.86,36.28Zm.28-3s0,0,0,.08c-.07.44-.18.93-.23,1.4l.62-.89C1.6,33.53,1.4,33.29,1.14,33.32Zm2.27-1.13c-.21.25-.49.28-1,.28-.21,0-.42,0-.62,0l-.11.1c.17.6.07.49.93.61,1.06.13,3.5.23,4.31-.16L7,32.34C6.29,32,4.74,32.17,3.41,32.19Zm.47-1.58a1.23,1.23,0,0,1-.1.86l0,.1h.1a4.81,4.81,0,0,0,1.65-.15l0-.77A4.73,4.73,0,0,0,3.88,30.61Zm.53-1.34-.35.32a.46.46,0,0,0,.21-.05C4.33,29.51,4.37,29.41,4.41,29.27Zm1.6-2-.54.14a.36.36,0,0,0,.41,0A.26.26,0,0,0,6,27.25Zm1.85-4c-.14,0-.21,0-.42,0-.12.52-.52.75-.52,1.48a1.3,1.3,0,0,1,.59.5.19.19,0,0,1,0,.26.53.53,0,0,1-.14.12.87.87,0,0,0,.42.09Zm.87-1.47c.14.44-.22,1.24-.23,1.66h0a2.4,2.4,0,0,0,.09,1.33c1.14.35.82-1.3.87-2.37s.39-2.56-.06-3.29C8.65,19.37,8.82,21,8.73,21.75ZM7.47,18A4.3,4.3,0,0,1,8,19l.09-3c-.08-.33-.06-.24-.16-.39-.37.43-.31.46-.35,1.18Zm.29-5.83c0,.09,0,.21,0,.39a.9.9,0,0,1-.23.59,4.19,4.19,0,0,0,.73,0C8.28,12.38,8.13,12.18,7.76,12.12Zm.11-1.68a3,3,0,0,1,0,.68c0,.1,0,.18,0,.26a.81.81,0,0,0,.41,0C8.73,11.14,8.43,10.78,7.87,10.44Zm1-2.13c-.17.13-.34.26-.52.42l-.09.08-.09.1L8.06,9a5.63,5.63,0,0,0,.68,1.66c1.27,0,.56-.93.27-1.85C9,8.69,8.91,8.51,8.86,8.31Zm1.85-1.93a4.44,4.44,0,0,1-.62.92c.8,1,1.71,1.86,2.1,1.5.61-.57-.15-1.13-.46-1.39A8.26,8.26,0,0,1,10.71,6.38Zm.48-1.62a6.23,6.23,0,0,1-.17.86l0,.15c.48.46,3.5,3.77,4.11,3.16S14,7.36,13,6.35A18.84,18.84,0,0,0,11.19,4.76Zm.07-2c0,.45,0,.9,0,1.35a1.89,1.89,0,0,0,1.2.38c.4-.82,0-1-.66-1.36Zm2.58-1.62a2.12,2.12,0,0,0-.33.11,2.28,2.28,0,0,0-.59.4A1.66,1.66,0,0,0,13.84,1.15ZM15.53.76h0l-1,.25c-.26.69-.27,1.1.31,1.35.52-.21.17.29.65-1.24Zm1.56.16h0c-.15,1,1,2.2,1.68,1a2.32,2.32,0,0,0-1.32-1ZM27.5,65.16h0v0c.49-.77,1-1.66.81-2.13-1-.09-1.29,1.31-2.36,3a1.63,1.63,0,0,1-.11.17,8.39,8.39,0,0,1,1,0c.16-.25.39-.58.61-.94A.31.31,0,0,0,27.5,65.16ZM11,34.07c-.49,0-1,.08-1.58.09-.9,0-5.74-.35-6.09.15-.74,1,1.62.73,2.35.76,1.08,0,3.34.14,5.36.07,0-.3,0-.62,0-.94Z"/></g></g></svg>