<svg xmlns="http://www.w3.org/2000/svg" viewBox="0 0 225.63 34.18"><defs><style>.cls-1{fill:#0fa54a;}.cls-2{fill:#136b43;}</style></defs><g id="Layer_2" data-name="Layer 2"><g id="Layer_1-2" data-name="Layer 1"><path class="cls-1" d="M123.43,32.29a4.68,4.68,0,0,1-1.16-.13,3.56,3.56,0,0,1-1-.41,3.4,3.4,0,0,1-.8-.68l.63-.8a3.58,3.58,0,0,0,1.1.88,2.79,2.79,0,0,0,1.24.27,3.12,3.12,0,0,0,.82-.11,1.84,1.84,0,0,0,.64-.33.68.68,0,0,0,.24-.54.53.53,0,0,0-.12-.35,1,1,0,0,0-.34-.24,2.46,2.46,0,0,0-.46-.17l-.51-.1-.47-.08a5.42,5.42,0,0,1-1-.23,2.89,2.89,0,0,1-.77-.36,1.68,1.68,0,0,1-.49-.54,1.53,1.53,0,0,1-.16-.72,1.39,1.39,0,0,1,.2-.76,1.6,1.6,0,0,1,.55-.58,2.68,2.68,0,0,1,.84-.37,4.23,4.23,0,0,1,1-.13,4.48,4.48,0,0,1,1.07.13,2.86,2.86,0,0,1,.87.37,2.33,2.33,0,0,1,.64.61l-.66.7a2.33,2.33,0,0,0-.53-.51,2.28,2.28,0,0,0-.67-.31,2.35,2.35,0,0,0-.75-.11,2.46,2.46,0,0,0-.8.11,1.36,1.36,0,0,0-.56.3.6.6,0,0,0-.21.46.65.65,0,0,0,.12.4,1,1,0,0,0,.35.28,2.2,2.2,0,0,0,.55.19,6.12,6.12,0,0,0,.74.14,9.11,9.11,0,0,1,1,.2,3.5,3.5,0,0,1,.83.3,1.7,1.7,0,0,1,.57.48,1.23,1.23,0,0,1,.21.73,1.8,1.8,0,0,1-.34,1.07,2.24,2.24,0,0,1-1,.7A4,4,0,0,1,123.43,32.29Z"/><path class="cls-1" d="M131.34,32.29a3.64,3.64,0,0,1-1.55-.31,2.54,2.54,0,0,1-1.07-.85,2.14,2.14,0,0,1-.38-1.24,2.38,2.38,0,0,1,.22-1.05,2.17,2.17,0,0,1,.63-.78,3,3,0,0,1,.94-.51,3.56,3.56,0,0,1,1.13-.18,3.26,3.26,0,0,1,1.05.17,2.93,2.93,0,0,1,.85.48,2.07,2.07,0,0,1,.57.72,2,2,0,0,1,.2.93v.46h-4.77l-.21-.74h4.18l-.14.09v-.22a1,1,0,0,0-.29-.54,1.76,1.76,0,0,0-.63-.36,2.32,2.32,0,0,0-.8-.13,3.05,3.05,0,0,0-1,.16,1.39,1.39,0,0,0-1,1.44,1.34,1.34,0,0,0,.28.85,1.8,1.8,0,0,0,.79.56,3.26,3.26,0,0,0,1.17.2,3,3,0,0,0,1.06-.17,4.51,4.51,0,0,0,.73-.38l.42.68a2.37,2.37,0,0,1-.63.36,5,5,0,0,1-.83.27A4.6,4.6,0,0,1,131.34,32.29Z"/><path class="cls-1" d="M136.86,34.18V27.47h.94v1.09l-.15-.08A1,1,0,0,1,138,28a2.66,2.66,0,0,1,.77-.42,3.22,3.22,0,0,1,2.38.15,2.28,2.28,0,0,1,.93.86,2.59,2.59,0,0,1,0,2.53,2.3,2.3,0,0,1-.93.87,2.86,2.86,0,0,1-1.37.32,3,3,0,0,1-1.05-.18,2.85,2.85,0,0,1-.81-.45,1.09,1.09,0,0,1-.38-.51l.24-.12v3.15Zm2.79-2.75a2.17,2.17,0,0,0,1-.21,1.78,1.78,0,0,0,.67-.57,1.49,1.49,0,0,0,0-1.62,1.67,1.67,0,0,0-.66-.57,2.25,2.25,0,0,0-1-.21,2.21,2.21,0,0,0-1,.21A1.74,1.74,0,0,0,138,29a1.49,1.49,0,0,0,0,1.62,1.74,1.74,0,0,0,.68.57A2.21,2.21,0,0,0,139.65,31.43Z"/><path class="cls-1" d="M144.54,28.38v-.9h3.92v.9Zm1.37,3.82V26.08h.93V32.2Z"/><path class="cls-1" d="M153.61,32.29a3.64,3.64,0,0,1-1.55-.31,2.48,2.48,0,0,1-1.07-.85,2.14,2.14,0,0,1-.38-1.24,2.38,2.38,0,0,1,.22-1.05,2.17,2.17,0,0,1,.63-.78,3,3,0,0,1,.94-.51,3.56,3.56,0,0,1,1.13-.18,3.3,3.3,0,0,1,1.05.17,2.93,2.93,0,0,1,.85.48,2.07,2.07,0,0,1,.57.72,2,2,0,0,1,.2.93v.46h-4.77l-.21-.74h4.18l-.14.09v-.22a.92.92,0,0,0-.3-.54,1.64,1.64,0,0,0-.62-.36,2.36,2.36,0,0,0-.8-.13,3,3,0,0,0-1,.16,1.39,1.39,0,0,0-1,1.44,1.34,1.34,0,0,0,.28.85,1.8,1.8,0,0,0,.79.56,3.26,3.26,0,0,0,1.17.2,2.88,2.88,0,0,0,1-.17,4.24,4.24,0,0,0,.74-.38l.42.68a2.37,2.37,0,0,1-.63.36,5,5,0,0,1-.83.27A4.6,4.6,0,0,1,153.61,32.29Z"/><path class="cls-1" d="M159,32.2V27.48h.94v1.27l-.31,0a1.65,1.65,0,0,1,.28-.43,2.35,2.35,0,0,1,.49-.44,3.15,3.15,0,0,1,.69-.33,2.75,2.75,0,0,1,.84-.12,2.34,2.34,0,0,1,.85.15,1.48,1.48,0,0,1,.63.47,1.5,1.5,0,0,1,.29.79l-.27-.06.07-.15a2,2,0,0,1,.31-.39,3,3,0,0,1,.51-.39,3.14,3.14,0,0,1,.64-.3,2.3,2.3,0,0,1,.74-.12,2.17,2.17,0,0,1,1.13.26,1.42,1.42,0,0,1,.6.72,2.69,2.69,0,0,1,.19,1.05V32.2h-.94V29.55a1.85,1.85,0,0,0-.12-.69.91.91,0,0,0-.37-.45,1.37,1.37,0,0,0-.68-.16,1.91,1.91,0,0,0-.68.12,2,2,0,0,0-.56.32,1.35,1.35,0,0,0-.37.49,1.31,1.31,0,0,0-.13.59V32.2h-.94V29.53a1.54,1.54,0,0,0-.14-.67.94.94,0,0,0-.42-.44,1.54,1.54,0,0,0-.75-.17,1.7,1.7,0,0,0-1.14.46,1.54,1.54,0,0,0-.33.44,1.23,1.23,0,0,0-.11.47V32.2Z"/><path class="cls-1" d="M173.78,32.29a2.73,2.73,0,0,1-.81-.11,3.12,3.12,0,0,1-.69-.3,2.65,2.65,0,0,1-.5-.4,1,1,0,0,1-.25-.39l.37-.06v1.15H171V25.54h.93v3l-.28,0a1.06,1.06,0,0,1,.24-.39,2.51,2.51,0,0,1,.49-.37,2.94,2.94,0,0,1,.67-.29,2.9,2.9,0,0,1,.79-.11,2.86,2.86,0,0,1,1.35.32,2.4,2.4,0,0,1,1,.86,2.27,2.27,0,0,1,.36,1.27,2.38,2.38,0,0,1-.35,1.27,2.52,2.52,0,0,1-1,.88A3,3,0,0,1,173.78,32.29Zm-.09-.85a2.16,2.16,0,0,0,1-.21,1.72,1.72,0,0,0,.67-.58,1.46,1.46,0,0,0,.24-.82,1.44,1.44,0,0,0-.24-.82,1.78,1.78,0,0,0-.67-.57,2.16,2.16,0,0,0-1-.2,2.25,2.25,0,0,0-1,.2A1.7,1.7,0,0,0,172,29a1.37,1.37,0,0,0-.25.82,1.39,1.39,0,0,0,.25.82,1.65,1.65,0,0,0,.67.58A2.25,2.25,0,0,0,173.69,31.44Z"/><path class="cls-1" d="M181.59,32.29A3.71,3.71,0,0,1,180,32a2.54,2.54,0,0,1-1.07-.85,2.14,2.14,0,0,1-.38-1.24,2.38,2.38,0,0,1,.23-1.05,2.17,2.17,0,0,1,.63-.78,2.94,2.94,0,0,1,.94-.51,3.48,3.48,0,0,1,1.13-.18,3.19,3.19,0,0,1,1,.17,3.13,3.13,0,0,1,.86.48,2.33,2.33,0,0,1,.57.72,2,2,0,0,1,.19.93v.46h-4.77l-.2-.74h4.17l-.13.09v-.22a.92.92,0,0,0-.3-.54,1.76,1.76,0,0,0-.63-.36,2.3,2.3,0,0,0-.79-.13,3,3,0,0,0-1,.16,1.53,1.53,0,0,0-.72.51,1.55,1.55,0,0,0-.26.93,1.34,1.34,0,0,0,.28.85,1.83,1.83,0,0,0,.8.56,3.16,3.16,0,0,0,1.16.2,3,3,0,0,0,1.06-.17,4.13,4.13,0,0,0,.73-.38l.42.68a2.22,2.22,0,0,1-.63.36,4.75,4.75,0,0,1-.83.27A4.5,4.5,0,0,1,181.59,32.29Z"/><path class="cls-1" d="M187.1,32.2V27.48H188v1.66l-.23-.15A2.35,2.35,0,0,1,189,27.6a1.69,1.69,0,0,1,.83-.22,2.51,2.51,0,0,1,.55.06,1.36,1.36,0,0,1,.42.16l-.25,1a1.15,1.15,0,0,0-.42-.15,1.94,1.94,0,0,0-.46-.06,1.76,1.76,0,0,0-.66.12,1.56,1.56,0,0,0-.5.33,1.45,1.45,0,0,0-.33.46,1.35,1.35,0,0,0-.11.52V32.2Z"/><path class="cls-1" d="M196.92,32.2l-.3-.73,2.11-2,.48-.47a6.42,6.42,0,0,0,.45-.47,2.29,2.29,0,0,0,.33-.48,1,1,0,0,0,.13-.46,1,1,0,0,0-.13-.49.81.81,0,0,0-.37-.31,1.58,1.58,0,0,0-.61-.11,1.88,1.88,0,0,0-.65.13,1.82,1.82,0,0,0-.6.39,2.49,2.49,0,0,0-.5.66l-.72-.49a3.27,3.27,0,0,1,.62-.83A2.65,2.65,0,0,1,198,26a2.94,2.94,0,0,1,1.09-.2,2.3,2.3,0,0,1,1.06.23,1.56,1.56,0,0,1,.69.6,1.61,1.61,0,0,1,.24.88,1.69,1.69,0,0,1-.1.58,2.59,2.59,0,0,1-.28.55,4,4,0,0,1-.42.52c-.15.17-.32.34-.49.51l-.51.49-1.53,1.46-.15-.36h3.68v.93Z"/><path class="cls-1" d="M204.05,32.2l2.61-5.68.1.28h-3.63v-.9h4.35l.12.63-2.51,5.67Z"/><path class="cls-1" d="M209.51,30.05v-.88h3v.88Z"/><path class="cls-1" d="M214.54,32.2l-.29-.73,2.1-2,.49-.47c.16-.16.31-.32.44-.47a2.29,2.29,0,0,0,.33-.48.92.92,0,0,0,.13-.46.88.88,0,0,0-.13-.49.77.77,0,0,0-.37-.31,1.58,1.58,0,0,0-.61-.11,1.83,1.83,0,0,0-.64.13,1.72,1.72,0,0,0-.6.39,2.29,2.29,0,0,0-.5.66l-.72-.49a2.86,2.86,0,0,1,.62-.83,2.51,2.51,0,0,1,.86-.56,3,3,0,0,1,1.1-.2,2.33,2.33,0,0,1,1.06.23,1.68,1.68,0,0,1,.69.6,1.61,1.61,0,0,1,.24.88,2,2,0,0,1-.1.58,2.64,2.64,0,0,1-.29.55,4.92,4.92,0,0,1-.41.52l-.49.51-.51.49-1.53,1.46-.15-.36h3.68v.93Z"/><path class="cls-1" d="M222.66,32.2l0-.09,2.3-4,0,.68a4.9,4.9,0,0,1-.43.47,2.93,2.93,0,0,1-.48.39,2.57,2.57,0,0,1-.53.25,2,2,0,0,1-.61.09,1.92,1.92,0,0,1-1-.28,2,2,0,0,1-.74-.72,1.87,1.87,0,0,1-.27-1,2.07,2.07,0,0,1,.33-1.16,2.26,2.26,0,0,1,.88-.8,2.58,2.58,0,0,1,1.24-.29,2.53,2.53,0,0,1,.91.16,2.46,2.46,0,0,1,.75.45,2,2,0,0,1,.52.67,1.77,1.77,0,0,1,.19.82,2.05,2.05,0,0,1-.09.58,4.19,4.19,0,0,1-.25.66,7,7,0,0,1-.36.73l-.41.77-.89,1.56Zm.49-3.09A2,2,0,0,0,224,29a1.36,1.36,0,0,0,.53-.44,1,1,0,0,0,.18-.57,1.15,1.15,0,0,0-.18-.62,1.34,1.34,0,0,0-.52-.45,1.77,1.77,0,0,0-.79-.16,1.59,1.59,0,0,0-.7.14,1.22,1.22,0,0,0-.52.43,1.16,1.16,0,0,0-.19.65,1,1,0,0,0,.18.57,1.49,1.49,0,0,0,.49.44A1.53,1.53,0,0,0,223.15,29.11Z"/><path class="cls-2" d="M83.33,27.38l-.87,1.9H85.3l-.9-1.94-.27-.61c-.08-.2-.17-.42-.25-.64q-.13.35-.27.66c-.09.21-.18.42-.28.63M86.54,32l-.77-1.67H82L81.21,32H80.08l3.22-7h1.22l3.2,7ZM73.07,32H68.72v-1h1.63V26H68.72V25h4.35V26H71.43v4.9h1.64ZM58.3,26H55.87v2.33h2.51a1.35,1.35,0,0,0,.66-.17,1.24,1.24,0,0,0,.47-.44,1,1,0,0,0,.17-.59,1,1,0,0,0-.19-.59,1.25,1.25,0,0,0-.5-.4A1.74,1.74,0,0,0,58.3,26Zm2.52,1.13a1.91,1.91,0,0,1-.2.89,2.34,2.34,0,0,1-.56.73,2.19,2.19,0,0,1-.81.47L61.19,32H59.85l-1.8-2.59H55.87V32H54.78V25h3.79a2.26,2.26,0,0,1,1.11.28,2.19,2.19,0,0,1,.83.77A2,2,0,0,1,60.82,27.16ZM41.71,25h5.42v1H42.79v1.85h3.79v1H42.79v2h4.34v1H41.71Zm-11-.06A4.68,4.68,0,0,1,32,25.1a4.52,4.52,0,0,1,1.07.44,2.78,2.78,0,0,1,.73.58l-.7.77A4.79,4.79,0,0,0,32,26.23a3.61,3.61,0,0,0-2.83.08,2.8,2.8,0,0,0-1.08.89,2.23,2.23,0,0,0-.39,1.29,2.38,2.38,0,0,0,.24,1.1,2.46,2.46,0,0,0,.66.8,2.86,2.86,0,0,0,.95.49,4,4,0,0,0,1.1.16,4.17,4.17,0,0,0,1.3-.2,2.49,2.49,0,0,0,.94-.53,1.16,1.16,0,0,0,.38-.78h-2.6V28.47h3.75l0,.25c0,.08,0,.17,0,.25a3.29,3.29,0,0,1-.17,1,2.88,2.88,0,0,1-.46.83,3.13,3.13,0,0,1-1.31.92,5.29,5.29,0,0,1-1.94.33A4.93,4.93,0,0,1,29,31.85a3.9,3.9,0,0,1-1.28-.71A3.33,3.33,0,0,1,26.85,30a3.56,3.56,0,0,1-.31-1.52,3.17,3.17,0,0,1,.31-1.41A3.53,3.53,0,0,1,27.73,26,4.11,4.11,0,0,1,29,25.2,4.75,4.75,0,0,1,30.66,24.93ZM19.34,32H15v-1h1.63V26H15V25h4.35V26H17.7v4.9h1.64ZM6.05,25H7.13v7H6.06L.9,26.53,1,27.8c0,.43.06.85.06,1.28V32H0V25H1.05l5.16,5.6c0-.33-.07-.68-.1-1.07s0-.76-.05-1.15,0-.74,0-1.08Z"/><path class="cls-2" d="M218.64,2.92h-5.49V8h5.67a3.1,3.1,0,0,0,.76-.09,2.91,2.91,0,0,0,.69-.27,3.63,3.63,0,0,0,.58-.43,2.93,2.93,0,0,0,.45-.54,2.4,2.4,0,0,0,.38-1.3,2.47,2.47,0,0,0-.1-.67,2,2,0,0,0-.31-.59,2.84,2.84,0,0,0-.48-.5,3.9,3.9,0,0,0-.63-.38,4.46,4.46,0,0,0-.73-.24,4,4,0,0,0-.79-.08m6,2.46a5.1,5.1,0,0,1-.12,1.11,4.8,4.8,0,0,1-.37,1,5.52,5.52,0,0,1-.57.93,5.62,5.62,0,0,1-.74.8,5.14,5.14,0,0,1-.9.65,5.39,5.39,0,0,1-.84.39l4.53,6.42-3.45,0-4.18-6h-4.81v6h-2.78V.23h8.87a5.49,5.49,0,0,1,4.61,2.49A4.52,4.52,0,0,1,224.41,4,5.05,5.05,0,0,1,224.6,5.38Zm-22.09,11.3H192.33V14h3.76v-11h-3.76V.23h10.33V2.94h-3.79V14h3.79v2.72ZM176.43,6l-1.91,4.18h6.1c-.77-1.66-1.55-3.31-2.3-5l-.3-.7q-.17-.36-.3-.72l-.15-.41-.18.44-.32.75c-.11.26-.22.5-.31.72Zm7.15,10.64-1.74-3.77h-8.56l-1.78,3.86h-2.92L176.14.23h3q3.77,8.22,7.52,16.45h-3Zm-31.09-.06V.23h12.77V2.92h-10V7.27h8.95V10h-8.95v6.72h-2.78Zm-14.67,0V2.92h-5.68V.23h14.3V2.92H140.6V16.68h-2.78Zm-23.56-5.06a11.34,11.34,0,0,0,1.27,1.24,8.72,8.72,0,0,0,1.33.91,5.91,5.91,0,0,0,1.49.57,8.07,8.07,0,0,0,3.83-.08,5.15,5.15,0,0,0,.89-.34,3.5,3.5,0,0,0,.71-.47,1.57,1.57,0,0,0,.44-.57,1.72,1.72,0,0,0,.15-.72,1.34,1.34,0,0,0-.29-.89,1.86,1.86,0,0,0-.89-.59,12.47,12.47,0,0,0-1.53-.42c-.6-.13-1.28-.25-2-.36a15,15,0,0,1-1.81-.34,10.44,10.44,0,0,1-1.55-.5A6.72,6.72,0,0,1,115,8.22a4.55,4.55,0,0,1-1-.89,3.48,3.48,0,0,1-.61-1.12,4.51,4.51,0,0,1-.2-1.36,4,4,0,0,1,.24-1.41,3.79,3.79,0,0,1,.7-1.21,5,5,0,0,1,1.09-.95,6.8,6.8,0,0,1,1.4-.71,9.5,9.5,0,0,1,1.65-.43A11.65,11.65,0,0,1,120.09,0a11.35,11.35,0,0,1,2.16.19,8.23,8.23,0,0,1,1.86.56,7,7,0,0,1,1.54.91,6.3,6.3,0,0,1,1.18,1.24l.07.1L125,5l-.11-.14a6.72,6.72,0,0,0-.91-.94,6.93,6.93,0,0,0-1.13-.75,5.35,5.35,0,0,0-1.32-.49A6.84,6.84,0,0,0,120,2.53a8.08,8.08,0,0,0-1.54.14,5.19,5.19,0,0,0-1.26.43,2.29,2.29,0,0,0-.81.66,1.43,1.43,0,0,0-.26.86,1.76,1.76,0,0,0,.13.71,1.33,1.33,0,0,0,.38.53,3.79,3.79,0,0,0,1.52.75c.32.09.68.17,1.08.25s.81.14,1.26.2.86.13,1.27.21l1.23.26a9.16,9.16,0,0,1,2.16.77,5.13,5.13,0,0,1,.88.57,4.12,4.12,0,0,1,.67.72,2.85,2.85,0,0,1,.44.91,3.78,3.78,0,0,1,.15,1.09,4.92,4.92,0,0,1-.23,1.51,4.39,4.39,0,0,1-.67,1.31,5,5,0,0,1-1.08,1.07,6.66,6.66,0,0,1-1.45.78,8.49,8.49,0,0,1-1.77.49,13.35,13.35,0,0,1-2.06.16,13.44,13.44,0,0,1-2.24-.19,10.93,10.93,0,0,1-2-.56,7.9,7.9,0,0,1-1.8-1,9.68,9.68,0,0,1-1.57-1.45l-.08-.09,1.8-2.29Zm-10-3A5.63,5.63,0,0,0,104,6.9a5.07,5.07,0,0,0-.63-1.38,5.53,5.53,0,0,0-1-1.16,6.5,6.5,0,0,0-1.32-.89A6.82,6.82,0,0,0,99.5,2.9a8.76,8.76,0,0,0-1.82-.19,8.86,8.86,0,0,0-1.83.19,7.07,7.07,0,0,0-1.6.57,6.16,6.16,0,0,0-1.31.89,5.44,5.44,0,0,0-1,1.16,5,5,0,0,0-.62,1.38,6,6,0,0,0-.2,1.55,6.06,6.06,0,0,0,.2,1.56A5,5,0,0,0,92,11.39a5.38,5.38,0,0,0,1,1.15,6.19,6.19,0,0,0,1.31.9,6.6,6.6,0,0,0,1.6.56,8.22,8.22,0,0,0,1.83.19A8.13,8.13,0,0,0,99.5,14a6.38,6.38,0,0,0,1.59-.56,6.53,6.53,0,0,0,1.32-.9,5.53,5.53,0,0,0,1-1.16A5.27,5.27,0,0,0,104,10,5.46,5.46,0,0,0,104.25,8.45Zm2.83,0a8.9,8.9,0,0,1-.17,1.73,8.09,8.09,0,0,1-.52,1.6,8,8,0,0,1-.84,1.44,8.28,8.28,0,0,1-1.12,1.25,9.29,9.29,0,0,1-1.38,1,10,10,0,0,1-3.4,1.26,12.47,12.47,0,0,1-2,.16,12.57,12.57,0,0,1-2-.16,9.54,9.54,0,0,1-1.8-.49,9.18,9.18,0,0,1-3-1.79,8.15,8.15,0,0,1-1.11-1.25A7.92,7.92,0,0,1,89,11.78a7.46,7.46,0,0,1-.51-1.6,8.19,8.19,0,0,1-.17-1.73,8.16,8.16,0,0,1,.17-1.72A7.46,7.46,0,0,1,89,5.13a7.92,7.92,0,0,1,.83-1.44,7.7,7.7,0,0,1,1.11-1.25,8.61,8.61,0,0,1,1.37-1A10.89,10.89,0,0,1,93.91.64a10.34,10.34,0,0,1,1.8-.48,12.21,12.21,0,0,1,3.94,0,10.34,10.34,0,0,1,1.8.48,11.26,11.26,0,0,1,1.6.77,9.9,9.9,0,0,1,1.38,1,8.28,8.28,0,0,1,1.12,1.25,8,8,0,0,1,.84,1.44,8.09,8.09,0,0,1,.52,1.6A8.88,8.88,0,0,1,107.08,8.45ZM66.35.29l6.37,8.45L79.13.23h2.62V16.68H79V9.75c0-.49,0-1,0-1.47s0-.93,0-1.38,0-.9.08-1.34c0-.28.05-.56.07-.84L73.53,12H71.86L66.23,4.75c0,.27,0,.54.07.81,0,.44.06.89.08,1.34s0,.91,0,1.39,0,1,0,1.46v6.93H63.64V.23h2.67ZM49.27,16.53V2.92H43.6V.23H57.89V2.92H52.05V16.68H49.27ZM38,5.38a4.83,4.83,0,0,1-.49,2.13,5.52,5.52,0,0,1-.57.93,5.16,5.16,0,0,1-.75.8,4.72,4.72,0,0,1-.89.65,6.4,6.4,0,0,1-.84.39L39,16.7l-3.45,0-4.18-6H26.56v6H23.78V9L23.92,9l.44-.09a1.46,1.46,0,0,0,.74-.24c.13-.13.13-.21,0-.29a1.41,1.41,0,0,0-.33-.08,1.65,1.65,0,0,0-1,.07v-1a1.74,1.74,0,0,1,1.08-.14,1.11,1.11,0,0,1,.35.11,1.56,1.56,0,0,1,.3.2,1.77,1.77,0,0,1,.16.14c.23.22.49.46.83.23l0,0a.35.35,0,0,0,.19-.22l0-.11-.11,0a.46.46,0,0,1-.17-.09l-.19-.13-.18-.14a3.11,3.11,0,0,0-.61-.41,1.7,1.7,0,0,0-.24-.09h0a2,2,0,0,0-1.44,0v-1l.15-.06.17,0a1.77,1.77,0,0,1,.94,0,2.34,2.34,0,0,1,.93.47l.2.17c.08.09.09.1.3.13a1.28,1.28,0,0,1,.28.07,4.82,4.82,0,0,0,.47.11,2.18,2.18,0,0,0,1.07-.17l.14,0a1.59,1.59,0,0,1,.33-.08l.22,0c.28-.07.31-.13.34-.21a.21.21,0,0,1,0-.06l0,0a.22.22,0,0,0,.1-.11l.06-.14-.15,0-.16,0a1.23,1.23,0,0,0-.67,0l-.42.13a2,2,0,0,1-.54.15,1.44,1.44,0,0,1-.31,0,.74.74,0,0,1-.24,0l-.12,0-.16,0a4.39,4.39,0,0,1-.93-.61l-.13-.1c-.09,0-.72-.15-.83-.16a2,2,0,0,0-1.11.14v-1h0A1.37,1.37,0,0,0,24.12,4l.1,0a2.07,2.07,0,0,1,.67-.09,2.46,2.46,0,0,1,.69.15,3.67,3.67,0,0,1,.53.32,1.92,1.92,0,0,0,.35.22,4.64,4.64,0,0,0,.7.19,3.35,3.35,0,0,0,.73,0H28a.56.56,0,0,0,.22,0,2.87,2.87,0,0,1,.87-.2,1.87,1.87,0,0,1,.87.18l.11.06a1.46,1.46,0,0,0,.41.16h.06l.1-.1a1.63,1.63,0,0,0,.17-.2l.06-.08-.07-.07-.06-.06a.6.6,0,0,0-.14-.13A2.18,2.18,0,0,0,29.74,4a6.25,6.25,0,0,0-.86-.08,2,2,0,0,0-.54.11,2.56,2.56,0,0,1-.74.15l-.28,0L27,4.1a2.66,2.66,0,0,1-.69-.36,2.47,2.47,0,0,0-2.29-.39l-.28.06V2.36l.34,0,.13,0a2.74,2.74,0,0,1,1.47.05,3.44,3.44,0,0,1,.55.28,2.64,2.64,0,0,0,1.19.43,2.33,2.33,0,0,0,.59,0A3.45,3.45,0,0,0,28.57,3a4.12,4.12,0,0,1,.93-.05,2.08,2.08,0,0,1,.88.25c.05,0,.06,0,.06,0s0,.08.14.12l.08,0h.05l.1,0,.2.09a2,2,0,0,0,.65.19h.09l0-.08a.37.37,0,0,1,.07-.12A.51.51,0,0,0,32,3.25l0-.12h-.12a3.28,3.28,0,0,1-1.19-.46,2.44,2.44,0,0,0-.8-.32,4.28,4.28,0,0,0-.49,0h-.61l-.05,0-.12,0a2.72,2.72,0,0,1-.9.12,2.68,2.68,0,0,1-.87-.2,2,2,0,0,1-.32-.18c-.15-.08-.31-.18-.56-.29a.51.51,0,0,1-.14-.08l-.08,0c-.08,0-.34,0-.45,0a.47.47,0,0,1-.17-.05c-.07,0-.07,0-.38,0l-.36.06-.17,0-.2,0-.27,0V.65A2.81,2.81,0,0,0,24.27.6l.22,0h.22a.86.86,0,0,0,.24,0c.05,0,.07,0,.53,0a2.58,2.58,0,0,1,.95.34.7.7,0,0,0,.19.1,3.84,3.84,0,0,0,1,.28,5.1,5.1,0,0,0,1.09,0h.07a2.86,2.86,0,0,1,1.6.15c.28.17.69.34,1,.49h0l.09,0h.18c.16,0,.31,0,.44.06.5.08.86.13,1.18-.32a.75.75,0,0,0,.07-.12l0-.07.14-.19c-.3,0-.63.05-.92.05a1.94,1.94,0,0,1-1.38-.25,4.15,4.15,0,0,0-.86-.37,3.65,3.65,0,0,0-.44-.09L29.49.57a.32.32,0,0,0-.24,0L29.2.6,29,.64l-.24,0-.63,0a4,4,0,0,1-.62-.06,3.05,3.05,0,0,1-.79-.3L26.48.23h5.4l.07,0h.28a1,1,0,0,0,.23,0h.93a5.38,5.38,0,0,1,1.9.62,5.75,5.75,0,0,1,1.1.78,5.46,5.46,0,0,1,.87,1A4.84,4.84,0,0,1,37.82,4,5.45,5.45,0,0,1,38,5.38ZM7.45.49,7.57.23H9.73l.3.05a3.08,3.08,0,0,0,.58,0l.44,1a2.84,2.84,0,0,1-.75.11A2,2,0,0,1,9,1L8.85.86a2.57,2.57,0,0,0-.77-.3A3.29,3.29,0,0,0,7.45.49ZM6.63,2.26l.52-1.11a1.26,1.26,0,0,1,.55,0,2,2,0,0,1,1,.38l.14.09A2.89,2.89,0,0,0,9.66,2a2.34,2.34,0,0,0,.84.07c.12,0,.44,0,.54-.06l.19-.08.09,0,.44,1a1.42,1.42,0,0,0-.41,0,3,3,0,0,0-.54.14,2.49,2.49,0,0,1-.42.12l-.25.05c-.36.1-.77-.16-1.2-.43a3.5,3.5,0,0,0-1.23-.56,2.08,2.08,0,0,0-.61,0A2.63,2.63,0,0,0,6.63,2.26Zm-.87,1.9L6.28,3,6.46,3a2.13,2.13,0,0,1,1.36-.14A.63.63,0,0,1,8,2.92L8,3A.59.59,0,0,0,8.21,3a1.2,1.2,0,0,1,.29.18l.16.11A2,2,0,0,0,10,3.77a1.46,1.46,0,0,1,.29,0,.42.42,0,0,0,.33,0l.23-.09.26-.09A1.47,1.47,0,0,1,12,3.51h.05l.58,1.27-.19-.1a2.67,2.67,0,0,0-.66-.18,1.67,1.67,0,0,0-.79.06l-.11,0-.09,0h0a.41.41,0,0,0-.22.1.83.83,0,0,1-.38.15,1.65,1.65,0,0,1-1.5-.48A2.32,2.32,0,0,0,8.09,4a1.94,1.94,0,0,0-.36-.11l-.38-.07a2.51,2.51,0,0,0-1,.17L6.29,4ZM5,5.89l.49-1a3.3,3.3,0,0,0,.87-.17l.29-.09a1.48,1.48,0,0,1,.9-.1,2.4,2.4,0,0,1,1,.59,1.64,1.64,0,0,0,.32.24,2.18,2.18,0,0,0,.66.17,2.43,2.43,0,0,0,.71,0,2.17,2.17,0,0,0,.56-.18,1.57,1.57,0,0,1,1.05-.14,1.52,1.52,0,0,1,.8.41,2,2,0,0,0,.55.39l.62,1.35h-.14a1.79,1.79,0,0,1-.77-.49,3,3,0,0,0-.55-.42,3.12,3.12,0,0,0-.49-.17l-.15,0a.79.79,0,0,0-.32,0,1.28,1.28,0,0,0-.36,0,3.09,3.09,0,0,0-.56.21,1.58,1.58,0,0,1-1,.21,1.56,1.56,0,0,1-.66-.27,3.88,3.88,0,0,1-.53-.47l0-.06c-.06-.08-.08-.11-.26-.13L7.69,5.6a2.73,2.73,0,0,0-.46-.12,1.37,1.37,0,0,0-.61,0,2.09,2.09,0,0,0-.5.18L6,5.74a2.37,2.37,0,0,1-.34.15,1.82,1.82,0,0,1-.35.05A3.12,3.12,0,0,1,5,5.9Zm10,10.7-1.73-3.77H4.7L2.93,16.68H0q2.36-5.1,4.69-10.2l.17,0a2.11,2.11,0,0,0,.83,0,2.6,2.6,0,0,0,.65-.25,1.43,1.43,0,0,1,1-.15l.27.08.22.13.39.33a2.19,2.19,0,0,0,.49.36,1.69,1.69,0,0,0,.61.19,2.29,2.29,0,0,0,1.23-.18l.11,0,.15-.08a1,1,0,0,1,.48-.14,1.6,1.6,0,0,1,1.22.54,2.51,2.51,0,0,0,.48.38,2,2,0,0,0,.81.23h.28l.4.87a1.43,1.43,0,0,1-.95.21,1.35,1.35,0,0,1-.48-.21,1.21,1.21,0,0,1-.4-.37v0a.46.46,0,0,0-.07-.1.34.34,0,0,0-.11-.07l-.05,0-.15-.09-.09-.06a1.57,1.57,0,0,0-.65-.25,2.25,2.25,0,0,0-.67,0h-.09a.57.57,0,0,0-.24,0,.83.83,0,0,0-.17.11,1.24,1.24,0,0,1-.55.26,1.17,1.17,0,0,1-.59,0,1,1,0,0,1-.5-.2l-.36-.39A3.41,3.41,0,0,0,8,7.5c-.18-.11-.36-.22-.43-.25a1.87,1.87,0,0,0-1.41,0l0,0L6,7.32,6,7.46c.14.33.51.33.79.34h.09a1.69,1.69,0,0,1,.44.07,1.51,1.51,0,0,1,.34.2,1.2,1.2,0,0,1,.24.22c.1.09.2.2.33.3a2.7,2.7,0,0,0,.4.26A2.4,2.4,0,0,0,9,9l.25,0a2.32,2.32,0,0,0,1.06-.27A3.19,3.19,0,0,1,11,8.53h0l.08,0a1.12,1.12,0,0,1,.41,0l.08,0A1.29,1.29,0,0,1,12.3,9a2.3,2.3,0,0,0,.43.39,1.84,1.84,0,0,0,.73.27,1.9,1.9,0,0,0,.79,0,1.77,1.77,0,0,0,.52-.22l3.31,7.26H15Z"/></g></g></svg>