<svg xmlns="http://www.w3.org/2000/svg" viewBox="0 0 44.94 45.45"><defs><style>.cls-1{fill:none;stroke:#fff;stroke-miterlimit:10;stroke-width:0.28px;}</style></defs><g id="Layer_2" data-name="Layer 2"><g id="Layer_1-2" data-name="Layer 1"><path d="M42.1,17.9a5.84,5.84,0,0,1-1.91,2l-1.64,1-2.68-1.61-2.69-1.62.16-1.94a5.94,5.94,0,0,1,3.39-4.91L42.65,8l.12,2.58a.88.88,0,0,0-.28,0l-2.24.55a5.62,5.62,0,0,0-4.16,4.26.91.91,0,0,0,.7,1.1.65.65,0,0,0,.2,0,.92.92,0,0,0,.9-.72A3.78,3.78,0,0,1,40.69,13l2.16-.54.1,2.13A5.94,5.94,0,0,1,42.1,17.9ZM25.35,42.1a2.78,2.78,0,1,1-4.77-2.84l0,0,7-11.58h0v0l2.55-4.23,2.38,1.44,2.38,1.43ZM9.23,19.66l2.31-1.53,6.81,10.33V38.55L6.91,21.19ZM4.29,10.48,5.42,12.2l-1.55,1-1.39-2.1Zm5.76,6.43-.27.18L6.37,19.33l-.31-2.62a1,1,0,0,0-.15-.4l-1-1.55,1.55-1,1,1.54a1,1,0,0,0,.31.29ZM23,2.59l4.47,6-3.19,6.37H23.9V12a2.79,2.79,0,1,0-1.85,0v2.94h-.36L18.5,8.55Zm0,7.71a.93.93,0,1,1,.93-.93A.93.93,0,0,1,23,10.3Zm-1.18,6.48h2.36l1.24,3.7H20.56ZM20.2,36.31v-14h5.55v4.78Zm17.09-14-1.43,2.38L31.11,21.8l1.43-2.37ZM44,5.81a.9.9,0,0,0-.87,0L36,9.14a7.79,7.79,0,0,0-4.45,6.43l-.18,2.29L27.6,24V21.4s0,0,0,0a.84.84,0,0,0,0-.27l-1.73-5.19,3.53-7.06a.92.92,0,0,0-.09-1L23.71.49A1,1,0,0,0,22.36.36a.8.8,0,0,0-.13.13l-5.55,7.4a.9.9,0,0,0-.09,1l3.53,7.06-1.73,5.19a.84.84,0,0,0,0,.27v3.71l-5.77-8.74,0,0a1.26,1.26,0,0,0-.2-.2l-.06,0,0,0-3.39-2L7.47,12l-2-3.09A.93.93,0,0,0,4.36,8.5L.76,9.76A.93.93,0,0,0,.2,11a.62.62,0,0,0,.1.2L2.84,15l1.4,2.14L4.71,21v0s0,0,0,.06a.86.86,0,0,0,.11.28,0,0,0,0,1,0,0S18.61,42.29,18.68,42.35A4.58,4.58,0,0,0,23,45.3a4.57,4.57,0,0,0,4-2.24L39.24,22.65l1.94-1.23a7.84,7.84,0,0,0,2.5-2.56,7.67,7.67,0,0,0,1.11-4.38l-.36-7.92A.9.9,0,0,0,44,5.81Z"/><path class="cls-1" d="M42.1,17.9a5.84,5.84,0,0,1-1.91,2l-1.64,1-2.68-1.61-2.69-1.62.16-1.94a5.94,5.94,0,0,1,3.39-4.91L42.65,8l.12,2.58a.88.88,0,0,0-.28,0l-2.24.55a5.62,5.62,0,0,0-4.16,4.26.91.91,0,0,0,.7,1.1.65.65,0,0,0,.2,0,.92.92,0,0,0,.9-.72A3.78,3.78,0,0,1,40.69,13l2.16-.54.1,2.13A5.94,5.94,0,0,1,42.1,17.9ZM25.35,42.1a2.78,2.78,0,1,1-4.77-2.84l0,0,7-11.58h0v0l2.55-4.23,2.38,1.44,2.38,1.43ZM9.23,19.66l2.31-1.53,6.81,10.33V38.55L6.91,21.19ZM4.29,10.48,5.42,12.2l-1.55,1-1.39-2.1Zm5.76,6.43-.27.18L6.37,19.33l-.31-2.62a1,1,0,0,0-.15-.4l-1-1.55,1.55-1,1,1.54a1,1,0,0,0,.31.29ZM23,2.59l4.47,6-3.19,6.37H23.9V12a2.79,2.79,0,1,0-1.85,0v2.94h-.36L18.5,8.55Zm0,7.71a.93.93,0,1,1,.93-.93A.93.93,0,0,1,23,10.3Zm-1.18,6.48h2.36l1.24,3.7H20.56ZM20.2,36.31v-14h5.55v4.78Zm17.09-14-1.43,2.38L31.11,21.8l1.43-2.37ZM44,5.81a.9.9,0,0,0-.87,0L36,9.14a7.79,7.79,0,0,0-4.45,6.43l-.18,2.29L27.6,24V21.4s0,0,0,0a.84.84,0,0,0,0-.27l-1.73-5.19,3.53-7.06a.92.92,0,0,0-.09-1L23.71.49A1,1,0,0,0,22.36.36a.8.8,0,0,0-.13.13l-5.55,7.4a.9.9,0,0,0-.09,1l3.53,7.06-1.73,5.19a.84.84,0,0,0,0,.27v3.71l-5.77-8.74,0,0a1.26,1.26,0,0,0-.2-.2l-.06,0,0,0-3.39-2L7.47,12l-2-3.09A.93.93,0,0,0,4.36,8.5L.76,9.76A.93.93,0,0,0,.2,11a.62.62,0,0,0,.1.2L2.84,15l1.4,2.14L4.71,21v0s0,0,0,.06a.86.86,0,0,0,.11.28,0,0,0,0,1,0,0S18.61,42.29,18.68,42.35A4.58,4.58,0,0,0,23,45.3a4.57,4.57,0,0,0,4-2.24L39.24,22.65l1.94-1.23a7.84,7.84,0,0,0,2.5-2.56,7.67,7.67,0,0,0,1.11-4.38l-.36-7.92A.9.9,0,0,0,44,5.81Z"/></g></g></svg>