<svg xmlns="http://www.w3.org/2000/svg" viewBox="0 0 45.53 39.71"><g id="Layer_2" data-name="Layer 2"><g id="Layer_1-2" data-name="Layer 1"><path d="M17.43,15.34H9.36V12.72h8.07Zm.06-3.95H9.3A1.27,1.27,0,0,0,8,12.66V15.4A1.27,1.27,0,0,0,9.3,16.67h8.19a1.27,1.27,0,0,0,1.27-1.27V12.66A1.27,1.27,0,0,0,17.49,11.39Z"/><path d="M35.59,32.38a8.94,8.94,0,0,1-4.93-1.17h0c-8.09-4.63-4.71-17,4.49-17a9.08,9.08,0,0,1,.46,18.14M23.88,37.91A1.43,1.43,0,0,1,21.76,36l5.4-6a10.47,10.47,0,0,0,2.12,1.92ZM6,7.14A2.37,2.37,0,0,0,3.6,9.51L3.58,34a1.15,1.15,0,0,1-1.13,1.15A1.17,1.17,0,0,1,1.33,34V3.2a1.82,1.82,0,0,1,.55-1.32A1.84,1.84,0,0,1,3.2,1.33h8.93A2.62,2.62,0,0,1,14.3,2.5l.45.67A4,4,0,0,0,18,4.93H37.38a1,1,0,0,1,1,1V7.18L6,7.14Zm36.7,9V9.56A2.37,2.37,0,0,0,40.3,7.18h-.55V6a2.38,2.38,0,0,0-2.37-2.38H18a2.61,2.61,0,0,1-2.18-1.16l-.45-.67A3.92,3.92,0,0,0,12.13,0H3.2A3.17,3.17,0,0,0,.94.94,3.22,3.22,0,0,0,0,3.2V34a2.5,2.5,0,0,0,2.54,2.49H17.89a.67.67,0,1,0,0-1.33H4.63A2.5,2.5,0,0,0,4.91,34l0-24.47a1,1,0,0,1,.31-.73A1,1,0,0,1,6,8.47H6l33.11,0H40.3a1,1,0,0,1,1,1V15a10.41,10.41,0,0,0-15,14l-5.58,6.18a2.76,2.76,0,1,0,4.1,3.71l5.58-6.18a10.42,10.42,0,0,0,5.21,1.09,10.29,10.29,0,0,0,5.66-2v1a2.45,2.45,0,0,1-2.44,2.45H29.81a.67.67,0,0,0-.67.67.66.66,0,0,0,.67.66h9.07a3.77,3.77,0,0,0,3.77-3.77V30.5A10.42,10.42,0,0,0,42.67,16.14Z"/><path d="M40.1,17.81A7.36,7.36,0,0,0,36.34,16a.66.66,0,0,0-.77.55.67.67,0,0,0,.55.76A6,6,0,0,1,39.2,18.8a6.08,6.08,0,1,1-5.9-1.29.67.67,0,0,0-.4-1.27,7.42,7.42,0,1,0,7.2,1.57"/></g></g></svg>