<svg xmlns="http://www.w3.org/2000/svg" viewBox="0 0 454.9 7.92"><defs><style>.cls-1{fill:none;stroke:#008a25;stroke-miterlimit:22.93;stroke-width:0.71px;}</style></defs><g id="Layer_2" data-name="Layer 2"><g id="Layer_1-2" data-name="Layer 1"><polyline class="cls-1" points="0.25 7.23 5.97 1.42 11.6 7.38 17.3 1.26 22.92 7.38 28.63 1.42 34.59 6.99 39.81 1.42 45.52 7.41 51.29 1.42 57.22 7 62.62 1.42 68.38 7.18 73.95 1.42 79.75 7.11 85.12 1.42 91.13 7.04 96.85 1.23 102.48 7.2 108.18 1.08 113.8 7.19 119.51 1.23 125.47 6.81 130.69 1.23 136.4 7.23 142.17 1.23 148.1 6.81 153.5 1.23 159.27 7 164.83 1.23 170.63 6.92 176 1.23 182.01 6.86 187.73 1.05 193.36 7.01 199.06 0.89 204.69 7 210.4 1.05 216.35 6.62 221.57 1.05 227.28 7.04 233.05 1.05 238.99 6.63 244.38 1.05 250.15 6.81 255.71 1.05 261.52 6.74 266.88 1.05 272.9 6.67 278.61 0.86 284.24 6.83 289.94 0.71 295.57 6.82 301.28 0.86 307.23 6.44 312.45 0.86 318.16 6.85 323.93 0.86 329.87 6.44 335.26 0.86 341.03 6.63 346.59 0.86 352.4 6.55 357.76 0.86 363.78 6.49 369.5 0.68 375.12 6.64 380.83 0.52 386.45 6.63 392.16 0.68 398.12 6.25 403.33 0.68 409.05 6.67 414.81 0.68 420.75 6.25 426.14 0.68 431.91 6.44 437.47 0.68 443.28 6.37 448.65 0.68 454.66 6.3"/></g></g></svg>