<svg xmlns="http://www.w3.org/2000/svg" viewBox="0 0 32.09 5.61"><defs><style>.cls-1{fill:#0f6c3f;fill-rule:evenodd;}</style></defs><g id="Layer_2" data-name="Layer 2"><g id="Layer_1-2" data-name="Layer 1"><path class="cls-1" d="M29.46,5.59a7.55,7.55,0,0,0,1.36-1.35A7,7,0,0,0,32.09,2.8c-.19-.4-.27-.4-.62-.77s-.4-.43-.65-.68A6.69,6.69,0,0,0,29.46,0L29.1.35c-.12.15-.18.21-.31.35a17.58,17.58,0,0,1-2,2A31.81,31.81,0,0,0,24.1,0a.94.94,0,0,0-.41.31,19.12,19.12,0,0,1-2.28,2.42.84.84,0,0,1-.4-.31L19.45.65,19.13.31C18.89.06,19,.15,18.73,0a6.68,6.68,0,0,0-1.37,1.34A7.86,7.86,0,0,0,16.1,2.8a18.32,18.32,0,0,0,2.63,2.79,32,32,0,0,0,2.68-2.73A30.32,30.32,0,0,0,24.1,5.59a35,35,0,0,0,2.68-2.73c.54.31.86.92,1.32,1.4a6.83,6.83,0,0,0,1.36,1.33"/><path class="cls-1" d="M10.73,2.8a19.34,19.34,0,0,0,2.63,2.79A22.8,22.8,0,0,0,16,2.79L13.36,0a17.58,17.58,0,0,0-2,2,2.57,2.57,0,0,0-.62.77"/><path class="cls-1" d="M5.37,2.8A19.84,19.84,0,0,0,8,5.59c.3-.14.15,0,.41-.3a3.37,3.37,0,0,0,.3-.36,5.62,5.62,0,0,1,.61-.72c.44-.46.89-.87,1.33-1.42L8,0A19.86,19.86,0,0,0,5.37,2.8"/><path class="cls-1" d="M0,2.8A7.85,7.85,0,0,0,1.27,4.24,9.78,9.78,0,0,0,2.63,5.61L5.28,2.78,2.62,0A29.68,29.68,0,0,0,.3,2.38.94.94,0,0,0,0,2.8"/></g></g></svg>