<svg xmlns="http://www.w3.org/2000/svg" viewBox="0 0 428.78 766.13"><defs><style>.cls-1{fill:#008a25;fill-rule:evenodd;}</style></defs><g id="Layer_2" data-name="Layer 2"><g id="Layer_1-2" data-name="Layer 1"><path class="cls-1" d="M426.07,7.15l2.71-2.85a36.68,36.68,0,0,0-4-4.23,29.28,29.28,0,0,0-4,4.21l.07.13h-.32l.11-.11c-.67-.83-1.34-1.44-2-2.15a8.62,8.62,0,0,1-.92-1.08,3.87,3.87,0,0,0-.45-.55c-.39-.4-.17-.23-.62-.45a32.25,32.25,0,0,0-3.95,4.21.42.42,0,0,0,.07.13h-.31l.1-.1-4-4.26a13.38,13.38,0,0,0-2.05,2.07,11.53,11.53,0,0,0-1.92,2.16l.06.13h-.28l.09-.1-4-4.27a16.25,16.25,0,0,0-2,2,11.76,11.76,0,0,0-2,2.24.38.38,0,0,0,.08.13h-.3l.12-.13q-2-2.1-4-4.25a37.73,37.73,0,0,0-4,4.25l.08.13h-.3l.12-.13c-1.33-1.44-2.66-2.86-4-4.25a41.51,41.51,0,0,0-4,4.25.77.77,0,0,0,.09.13h-.31l.12-.13-4-4.26a43.7,43.7,0,0,0-4,4.26s.07.09.09.13h-.28l.1-.11-4-4.29a44.82,44.82,0,0,0-4,4.27,1.13,1.13,0,0,0,.1.13H364l.1-.1-4-4.3-4,4.23.16.17h-.3l.1-.09L352,0l-4,4.25.15.16h-.28l.09-.09L343.9,0l-4.06,4.22.15.16h-.27l.08-.09L335.8,0l-4.05,4.23.15.15h-.33a.91.91,0,0,0,.1-.13,18.29,18.29,0,0,0-1.93-2.12,10.82,10.82,0,0,0-2-2V4.41h0V.14c-.78.38-1.32,1.37-2,2.07-.48.51-1.48,1.74-2,2.13l.07.07h-.28a.16.16,0,0,0,0-.07,9.88,9.88,0,0,0-1.91-2.18,11.19,11.19,0,0,0-2-2,10.61,10.61,0,0,0-2.07,2,10.83,10.83,0,0,1-2,2.11c-1.23-1.07-3-3.49-4.05-4.12-.83.44-3.24,3.36-4.05,4.12-1.23-1.14-3.13-3.61-4-4.12a27.36,27.36,0,0,0-4,4.21l0,.07h-.23l.05,0a35.88,35.88,0,0,0-4-4.23,29.28,29.28,0,0,0-4,4.21.16.16,0,0,0,0,.07h-.24l.06,0c-.67-.83-1.34-1.45-2-2.15a8,8,0,0,1-.92-1.09,4.55,4.55,0,0,0-.46-.54c-.38-.4-.16-.24-.61-.45a30.47,30.47,0,0,0-4,4.21l.05.07h-.23l.05,0-4-4.26a14.93,14.93,0,0,0-2.06,2.07,11.85,11.85,0,0,0-1.91,2.17l0,.07H275l0,0L271,.1a15.62,15.62,0,0,0-2,2,12.11,12.11,0,0,0-2,2.24l.05.07h-.21l.06-.07c-1.35-1.4-2.69-2.83-4-4.25a36,36,0,0,0-4,4.25l0,.07h-.21l.07-.07c-1.33-1.44-2.66-2.86-4-4.25a39.53,39.53,0,0,0-4,4.25l0,.07h-.22l.07-.07-4-4.26a41.44,41.44,0,0,0-4,4.26l.05.07h-.19l.05,0-4-4.29a46,46,0,0,0-4,4.27l0,.07h-.18l0,0-4-4.31-4,4.24.1.11h-.19l0,0-4-4.31-4,4.24.1.11h-.18l0,0-4-4.29-4,4.22.1.1h-.17l0,0-4-4.3-4,4.23.09.1h-.23l.05-.07a16,16,0,0,0-1.93-2.12,10.32,10.32,0,0,0-2-2V4.41h0V.19c-.78.38-1.32,1.38-2,2.08-.48.5-1.49,1.73-2,2.13h-.16a9.88,9.88,0,0,0-1.91-2.18,12,12,0,0,0-2-2,10.62,10.62,0,0,0-2.06,2,10.8,10.8,0,0,1-2,2.1c-1.22-1.06-2.95-3.48-4-4.12-.82.45-3.23,3.36-4.05,4.13-1.23-1.14-3.13-3.62-4.05-4.13a27.37,27.37,0,0,0-4,4.22h-.14a36.75,36.75,0,0,0-4-4.23,30,30,0,0,0-4,4.22h-.14c-.66-.83-1.34-1.44-2-2.14a8.66,8.66,0,0,1-.93-1.09,3.74,3.74,0,0,0-.45-.55c-.39-.4-.17-.23-.62-.45a31.71,31.71,0,0,0-3.95,4.22h-.14l-4-4.25a13.9,13.9,0,0,0-2.06,2.07,11.28,11.28,0,0,0-1.92,2.17h-.14l-4-4.25a16.14,16.14,0,0,0-2,2,12.5,12.5,0,0,0-2,2.25h-.1q-2-2.12-4-4.25a37,37,0,0,0-4,4.25h-.1c-1.32-1.44-2.66-2.87-4-4.25a39.53,39.53,0,0,0-4,4.25h-.1l-4-4.27a40.44,40.44,0,0,0-4,4.27h-.1l-4-4.29a46.09,46.09,0,0,0-4,4.28h-.09l-4-4.29-4,4.24.06,0H97L93,.11,89,4.36l0,0h-.11l-4-4.27L80.88,4.37l0,0h-.11l-4-4.27-4,4.23,0,0H72.7a15.4,15.4,0,0,0-1.93-2.12,10.32,10.32,0,0,0-2-2V4.41h0V.25c-.78.38-1.32,1.37-2,2.08-.47.49-1.43,1.66-1.94,2.08h-.24a10.91,10.91,0,0,0-1.89-2.14,11.19,11.19,0,0,0-2-2,10.86,10.86,0,0,0-2.06,2,10.88,10.88,0,0,1-2,2.11c-1.23-1.07-3-3.48-4.05-4.12-.82.45-3.23,3.36-4,4.12C47.26,3.23,45.36.75,44.44.24A28.06,28.06,0,0,0,40.5,4.41h-.21A36.22,36.22,0,0,0,36.34.24,30.23,30.23,0,0,0,32.4,4.41h-.21c-.65-.8-1.31-1.4-1.95-2.09a7.88,7.88,0,0,1-.93-1.08,3.87,3.87,0,0,0-.45-.55c-.39-.4-.17-.23-.62-.45a32.75,32.75,0,0,0-3.93,4.17h-.22L20.16.22a13.38,13.38,0,0,0-2.05,2.07,11.82,11.82,0,0,0-1.89,2.12H16L12.07.21a16.25,16.25,0,0,0-2,2,12.48,12.48,0,0,0-2,2.2H8C6.62,3,5.29,1.61,4,.2A37.73,37.73,0,0,0,0,4.45,8.12,8.12,0,0,0,.88,5.54V761.73H3a12.09,12.09,0,0,0,1.88,2.11,13.44,13.44,0,0,0,2.06,2.07l3.92-4.18h.23A32.67,32.67,0,0,0,15,765.89c.46-.22.23,0,.62-.45a3.29,3.29,0,0,0,.45-.55,7.88,7.88,0,0,1,.93-1.08c.64-.68,1.3-1.29,1.94-2.08h.23a30.76,30.76,0,0,0,3.93,4.16,35.28,35.28,0,0,0,3.94-4.16h.23a29,29,0,0,0,3.93,4.16c.93-.51,2.83-3,4-4.12.82.76,3.23,3.67,4.05,4.12,1.1-.63,2.83-3,4-4.12a10.58,10.58,0,0,1,2,2.11,10.86,10.86,0,0,0,2.06,2,11.24,11.24,0,0,0,2.05-2,10.84,10.84,0,0,0,1.88-2.13h.25c.52.43,1.47,1.59,1.93,2.08.67.7,1.2,1.69,2,2.07l0-4.15h0v4.15a10.55,10.55,0,0,0,2-2,15.4,15.4,0,0,0,1.93-2.12h.12l0,0,4,4.23,4-4.26h.11l0,0L71.71,766l4-4.26h.11l0,0,4,4.25,4-4.29h.11l0,0,4,4.23,4-4.28H92a46.09,46.09,0,0,0,4,4.28l4-4.28h.1a41.52,41.52,0,0,0,4,4.27l4-4.27h.1a39.53,39.53,0,0,0,4,4.25c1.37-1.38,2.7-2.8,4-4.25h.1a36.12,36.12,0,0,0,4,4.26q2-2.15,4-4.26h.1a12.17,12.17,0,0,0,2,2.25,16.3,16.3,0,0,0,2,2l4-4.25h.15a11.57,11.57,0,0,0,1.91,2.17,14.4,14.4,0,0,0,2.06,2.07l4-4.24h.15a31.78,31.78,0,0,0,4,4.22c.45-.22.23-.05.61-.45a3.83,3.83,0,0,0,.46-.55,8.63,8.63,0,0,1,.92-1.09c.66-.69,1.34-1.31,2-2.13h.15a28.84,28.84,0,0,0,4,4.22,36.6,36.6,0,0,0,4-4.22h.15a27.43,27.43,0,0,0,4,4.22c.92-.51,2.82-3,4.05-4.12.81.76,3.22,3.67,4.05,4.12,1.09-.64,2.82-3.06,4-4.12a10.54,10.54,0,0,1,2,2.11,10.9,10.9,0,0,0,2.07,2,11.58,11.58,0,0,0,2-2,10.19,10.19,0,0,0,1.92-2.18H181c.5.4,1.5,1.63,2,2.13.67.7,1.21,1.7,2,2.08v-4.21h0v4.21a10.88,10.88,0,0,0,2-2,17.51,17.51,0,0,0,1.93-2.12l-.05-.06h.22l-.09.09,4.05,4.23,4-4.3,0,0h.15l-.08.09,4.05,4.22,4-4.29,0,0h.16l-.09.1,4,4.24,4-4.31,0,0h.17l-.1.1,4,4.24,4-4.31,0,0h.17l-.05.06a44.82,44.82,0,0,0,4,4.27l4-4.29,0,0h.18l0,.06a42.58,42.58,0,0,0,4,4.26l4-4.26-.06-.06h.21l0,.06a38.44,38.44,0,0,0,4,4.25c1.37-1.39,2.7-2.81,4-4.25l-.06-.06h.2l0,.06a36.89,36.89,0,0,0,4,4.25q2-2.13,4-4.25l-.06-.06h.2l0,.06a11.76,11.76,0,0,0,2,2.24,16.25,16.25,0,0,0,2,2l4-4.27,0,0H262l0,.06a11.58,11.58,0,0,0,1.92,2.17,13.84,13.84,0,0,0,2,2.07l4-4.26,0,0h.22l0,.06a31,31,0,0,0,4,4.21c.45-.21.23,0,.62-.45a4.44,4.44,0,0,0,.45-.54,8,8,0,0,1,.93-1.09c.66-.7,1.34-1.32,2-2.15l0,0h.22a.13.13,0,0,0,0,.06,29.31,29.31,0,0,0,4,4.21,35.88,35.88,0,0,0,4-4.23l0,0h.22l0,.06a26.82,26.82,0,0,0,4,4.21c.92-.5,2.82-3,4.05-4.12.82.77,3.23,3.68,4,4.12,1.09-.63,2.83-3,4.05-4.11.81.46,1.3,1.38,2,2.1a10.56,10.56,0,0,0,2.06,2,11.19,11.19,0,0,0,2-2,10.19,10.19,0,0,0,1.92-2.18.13.13,0,0,0,0-.06h.26l-.06.06c.5.39,1.51,1.62,2,2.13.66.7,1.2,1.69,2,2.07v-4.26h0V766a10.26,10.26,0,0,0,2-2,16.66,16.66,0,0,0,1.93-2.12.74.74,0,0,0-.09-.12h.31l-.13.14,4.05,4.23,4-4.29-.08-.08h.26l-.14.15,4.05,4.22,4-4.29-.08-.08h.27l-.15.15,4,4.25,4-4.32-.08-.08H343l-.15.16,4,4.23,4-4.23a28.66,28.66,0,0,0,3.9,4.11c.92-.5,2.82-3,4.05-4.12.82.77,3.23,3.68,4.05,4.12,1.1-.63,2.83-3,4-4.11.81.46,1.3,1.38,2,2.1a10.56,10.56,0,0,0,2.06,2,11.57,11.57,0,0,0,2.05-2,10.42,10.42,0,0,0,1.91-2.18l0-.06h.25l-.06.06c.5.39,1.51,1.62,2,2.13.66.7,1.2,1.69,2,2.07v-4.26h0V766a10.26,10.26,0,0,0,2-2,16.66,16.66,0,0,0,1.93-2.12l-.08-.12h.31l-.14.14,4,4.23,4-4.29-.08-.08h.26l-.14.15,4.05,4.22,4-4.29-.08-.08h.27l-.15.15,4,4.25,4-4.32-.08-.08h.27l-.15.16,4,4.23,4-4.3-.09-.09h10.79ZM350.76,761.73Z"/></g></g></svg>