<svg xmlns="http://www.w3.org/2000/svg" viewBox="0 0 51.43 38.68"><defs><style>.cls-1{fill:none;stroke:#fff;stroke-miterlimit:10;stroke-width:0.28px;}</style></defs><g id="Layer_2" data-name="Layer 2"><g id="Layer_1-2" data-name="Layer 1"><path d="M49.9,18H46a1.39,1.39,0,0,0,0,2.78h3.9a1.39,1.39,0,0,0,0-2.78Z"/><path class="cls-1" d="M49.9,18H46a1.39,1.39,0,0,0,0,2.78h3.9a1.39,1.39,0,0,0,0-2.78Z"/><path d="M49.76,10.53a1.4,1.4,0,0,0-1.9-.51L45.31,11.5a1.39,1.39,0,1,0,1.39,2.4l2.55-1.47A1.4,1.4,0,0,0,49.76,10.53Z"/><path class="cls-1" d="M49.76,10.53a1.4,1.4,0,0,0-1.9-.51L45.31,11.5a1.39,1.39,0,1,0,1.39,2.4l2.55-1.47A1.4,1.4,0,0,0,49.76,10.53Z"/><path d="M49.25,26.25,46.7,24.78a1.39,1.39,0,0,0-1.39,2.41l2.55,1.47a1.36,1.36,0,0,0,.69.19,1.39,1.39,0,0,0,.7-2.6Z"/><path class="cls-1" d="M49.25,26.25,46.7,24.78a1.39,1.39,0,0,0-1.39,2.41l2.55,1.47a1.36,1.36,0,0,0,.69.19,1.39,1.39,0,0,0,.7-2.6Z"/><path d="M38.62,32c-.87,3.79-1.84,4.61-2,4.61h0l0,0h0c-.31-.19-1.16-1.22-1.93-4.57a49.84,49.84,0,0,1-1-7.26,5.46,5.46,0,0,0,0-10.83,49,49,0,0,1,1-7.29c.77-3.35,1.61-4.38,1.93-4.57l.09,0h0c.19,0,1.16.82,2,4.61a59.3,59.3,0,0,1,1.2,12.69A59.24,59.24,0,0,1,38.62,32ZM33.44,15.84a3.56,3.56,0,0,1,0,7c0-1.14-.08-2.32-.08-3.52S33.39,17,33.44,15.84ZM7.17,24.29v-5a.95.95,0,0,0-1.9,0v4.16L2,22.13V16.55L33.56,3.31a21.89,21.89,0,0,0-.85,2.92q0,.18-.09.39L21.84,10.67a1,1,0,0,0-.55,1.23.94.94,0,0,0,.89.61,1,1,0,0,0,.33-.06l9.7-3.65a68.78,68.78,0,0,0-.75,10.54,61.35,61.35,0,0,0,1.25,13.12,22.15,22.15,0,0,0,.85,2.91Zm13.31,8.5a.81.81,0,0,1-.81.81H11a.8.8,0,0,1-.8-.81V27.63l10.26,4.31Zm20-26.56c-.93-4.1-2.2-6.09-3.88-6.09a2.11,2.11,0,0,0-.92.22L.72,15a1,1,0,0,0-.58.88v6.84a1,1,0,0,0,.58.88l5.13,2.15h0l2.46,1v6A2.71,2.71,0,0,0,11,35.5h8.65a2.71,2.71,0,0,0,2.71-2.71v0l13.29,5.58a2,2,0,0,0,.92.22c1.68,0,2.95-2,3.88-6.08a61.35,61.35,0,0,0,1.25-13.12A61.18,61.18,0,0,0,40.47,6.23Z"/><path class="cls-1" d="M38.62,32c-.87,3.79-1.84,4.61-2,4.61h0l0,0h0c-.31-.19-1.16-1.22-1.93-4.57a49.84,49.84,0,0,1-1-7.26,5.46,5.46,0,0,0,0-10.83,49,49,0,0,1,1-7.29c.77-3.35,1.61-4.38,1.93-4.57l.09,0h0c.19,0,1.16.82,2,4.61a59.3,59.3,0,0,1,1.2,12.69A59.24,59.24,0,0,1,38.62,32ZM33.44,15.84a3.56,3.56,0,0,1,0,7c0-1.14-.08-2.32-.08-3.52S33.39,17,33.44,15.84ZM7.17,24.29v-5a.95.95,0,0,0-1.9,0v4.16L2,22.13V16.55L33.56,3.31a21.89,21.89,0,0,0-.85,2.92q0,.18-.09.39L21.84,10.67a1,1,0,0,0-.55,1.23.94.94,0,0,0,.89.61,1,1,0,0,0,.33-.06l9.7-3.65a68.78,68.78,0,0,0-.75,10.54,61.35,61.35,0,0,0,1.25,13.12,22.15,22.15,0,0,0,.85,2.91Zm13.31,8.5a.81.81,0,0,1-.81.81H11a.8.8,0,0,1-.8-.81V27.63l10.26,4.31Zm20-26.56c-.93-4.1-2.2-6.09-3.88-6.09a2.11,2.11,0,0,0-.92.22L.72,15a1,1,0,0,0-.58.88v6.84a1,1,0,0,0,.58.88l5.13,2.15h0l2.46,1v6A2.71,2.71,0,0,0,11,35.5h8.65a2.71,2.71,0,0,0,2.71-2.71v0l13.29,5.58a2,2,0,0,0,.92.22c1.68,0,2.95-2,3.88-6.08a61.35,61.35,0,0,0,1.25-13.12A61.18,61.18,0,0,0,40.47,6.23Z"/><path d="M19.1,12.72a1,1,0,0,0-1.22-.56h0A.95.95,0,0,0,18.19,14a1,1,0,0,0,.34-.06h0A.94.94,0,0,0,19.1,12.72Z"/><path class="cls-1" d="M19.1,12.72a1,1,0,0,0-1.22-.56h0A.95.95,0,0,0,18.19,14a1,1,0,0,0,.34-.06h0A.94.94,0,0,0,19.1,12.72Z"/></g></g></svg>